<svg
          version="1.0"
          xmlns="http://www.w3.org/2000/svg"
          className="h-8 w-8"
          viewBox="0 0 1080.000000 1080.000000"
          preserveAspectRatio="xMidYMid meet"
        >
          <metadata>
            Created by potrace 1.14, written by Peter Selinger 2001-2017
          </metadata>
          <g
            transform="translate(0.000000,1080.000000) scale(0.100000,-0.100000)"
            fill="#000000"
            stroke="none"
          >
            <path
              d="M5372 10402 c8 -9 7 -11 -7 -6 -14 6 -16 4 -10 -7 5 -8 -2 -5 -14 5
  -22 20 -22 20 -16 0 6 -18 6 -18 -8 -1 -10 13 -16 14 -19 6 -3 -8 -9 -9 -19
  -4 -19 13 -39 15 -39 5 0 -4 -7 -11 -16 -14 -8 -3 -13 -2 -10 3 3 5 -1 12 -9
  15 -9 3 -18 -1 -21 -9 -4 -8 -13 -15 -21 -15 -8 0 -11 -4 -8 -10 3 -6 -1 -7
  -9 -4 -9 3 -13 11 -9 18 5 8 3 8 -8 -1 -20 -16 -80 -19 -106 -5 -15 8 -24 9
  -28 2 -5 -8 -12 -7 -23 2 -13 11 -14 11 -7 -1 6 -11 2 -13 -18 -9 -15 3 -24 2
  -22 -3 3 -4 2 -9 -2 -12 -5 -2 -1 -2 7 0 12 3 13 2 2 -9 -11 -11 -16 -10 -28
  6 -10 15 -14 16 -14 5 0 -8 6 -21 13 -29 6 -8 -1 -4 -17 10 -16 14 -26 19 -22
  12 4 -7 1 -15 -8 -18 -9 -3 -13 -11 -9 -18 4 -6 1 -6 -9 2 -13 10 -21 9 -47
  -5 -17 -10 -31 -22 -31 -27 0 -4 11 -1 25 8 14 9 25 13 25 8 0 -14 -54 -35
  -58 -23 -2 6 -8 11 -13 11 -6 0 -7 -5 -3 -12 5 -8 0 -9 -14 -6 -15 4 -20 3
  -15 -5 11 -18 12 -38 2 -31 -5 3 -7 10 -4 15 4 5 1 9 -4 9 -6 0 -11 -6 -11
  -14 0 -7 -7 -19 -15 -26 -8 -7 -12 -17 -8 -23 3 -6 1 -7 -6 -3 -6 4 -9 12 -6
  17 4 5 -1 9 -10 9 -9 0 -13 -4 -10 -10 3 -5 1 -10 -5 -10 -6 0 -8 -4 -5 -10 6
  -9 0 -12 -35 -14 -8 -1 -17 -12 -18 -25 -3 -19 -6 -21 -13 -10 -7 12 -9 11 -9
  -2 0 -9 -8 -23 -17 -30 -14 -12 -16 -12 -8 0 5 9 4 12 -3 8 -5 -4 -8 -17 -5
  -30 3 -16 2 -18 -5 -8 -12 17 -33 6 -25 -14 3 -8 0 -15 -7 -15 -6 0 -9 3 -7 8
  3 4 -2 13 -9 20 -13 11 -14 9 -10 -13 4 -23 3 -25 -10 -14 -12 10 -15 10 -12
  -2 2 -8 7 -17 13 -21 5 -4 0 -6 -12 -6 -13 2 -19 7 -17 18 3 8 -1 5 -7 -7 -7
  -13 -16 -23 -21 -23 -5 0 -6 5 -3 10 3 6 2 10 -4 10 -5 0 -13 -9 -16 -20 -3
  -11 -11 -20 -16 -20 -6 0 -7 5 -3 12 4 7 3 8 -4 4 -6 -4 -8 -14 -5 -24 6 -14
  4 -15 -9 -4 -13 10 -18 10 -24 1 -4 -8 -3 -9 4 -5 7 4 12 2 12 -5 0 -6 -8 -9
  -20 -6 -11 3 -23 0 -27 -5 -3 -7 -1 -8 5 -4 7 4 12 2 12 -4 0 -6 5 -8 12 -4 6
  4 8 3 5 -3 -3 -5 -20 -8 -36 -7 -17 1 -28 -2 -25 -7 9 -15 -15 -39 -32 -32
  -10 3 -12 0 -8 -10 3 -8 0 -18 -7 -23 -7 -4 -10 -3 -5 4 3 6 2 13 -4 17 -5 3
  -10 0 -10 -8 0 -9 -9 -13 -24 -12 -19 2 -23 -1 -19 -13 5 -11 3 -13 -8 -7 -12
  7 -12 6 -1 -7 11 -13 10 -16 -5 -14 -12 1 -17 -5 -16 -18 1 -13 -2 -15 -10 -7
  -6 6 -16 11 -22 11 -5 0 -3 -5 5 -10 13 -8 13 -11 -1 -26 -13 -12 -18 -13 -24
  -3 -5 7 -4 10 3 5 6 -3 13 -2 16 3 9 13 -19 8 -38 -8 -9 -7 -13 -17 -10 -22 8
  -13 -10 -11 -25 4 -7 6 -11 8 -10 2 4 -16 -12 -45 -21 -40 -5 3 -12 0 -16 -6
  -4 -8 -3 -9 4 -5 7 4 12 2 12 -3 0 -6 1 -14 3 -18 1 -3 -6 -7 -16 -9 -9 -1
  -15 2 -11 7 3 5 0 9 -7 9 -6 0 -9 -8 -6 -20 3 -11 0 -23 -5 -27 -7 -3 -8 -1
  -4 5 4 7 3 12 -2 12 -6 0 -13 -7 -16 -16 -3 -8 -10 -13 -15 -9 -5 3 -13 0 -17
  -6 -4 -7 -3 -9 3 -6 6 4 13 0 17 -8 3 -8 0 -17 -6 -21 -7 -4 -8 -3 -4 4 4 7 3
  12 -2 12 -5 0 -14 -10 -21 -22 -11 -23 -11 -23 -6 2 6 23 5 24 -6 5 -16 -26
  -30 -35 -43 -28 -5 3 -6 1 -2 -6 4 -6 11 -9 15 -7 4 3 8 -1 8 -9 0 -10 -5 -11
  -19 -4 -23 12 -24 0 0 -17 16 -12 16 -12 -3 -11 -11 1 -24 7 -28 12 -5 6 -7 0
  -4 -12 3 -13 0 -26 -5 -30 -7 -3 -8 -1 -4 5 4 7 2 12 -3 12 -11 0 -15 -15 -12
  -34 1 -5 -6 -3 -15 5 -16 13 -16 12 -6 -8 9 -16 9 -24 0 -29 -6 -4 -8 -3 -4 4
  3 6 2 13 -4 17 -5 3 -10 -1 -10 -9 0 -16 -39 -48 -50 -41 -4 3 -7 -10 -7 -28
  1 -27 -2 -32 -21 -31 -12 0 -22 -3 -22 -8 0 -4 5 -8 10 -8 6 0 10 -5 10 -11 0
  -6 -7 -8 -16 -5 -12 4 -15 2 -11 -9 7 -18 -9 -30 -19 -14 -5 8 -3 9 6 4 9 -5
  11 -4 6 4 -13 21 -27 1 -14 -22 11 -21 10 -21 -7 -7 -10 8 -16 10 -12 4 4 -7
  0 -17 -8 -24 -7 -6 -11 -18 -8 -26 3 -8 0 -14 -6 -14 -6 0 -11 5 -11 11 0 5
  -5 7 -11 4 -6 -5 -4 -11 7 -19 15 -12 15 -13 -2 -13 -11 0 -22 5 -26 11 -4 6
  -7 0 -6 -14 2 -42 -1 -50 -18 -50 -14 0 -15 -2 -3 -17 10 -11 10 -14 2 -9 -8
  4 -13 2 -13 -4 0 -6 -5 -8 -10 -5 -6 4 -7 11 -4 17 4 7 2 8 -5 4 -7 -5 -9 -12
  -3 -19 5 -7 9 -22 10 -34 0 -16 -4 -20 -15 -16 -12 5 -14 3 -8 -7 5 -8 4 -11
  -2 -7 -6 4 -17 -1 -24 -10 -12 -15 -12 -16 3 -10 10 3 20 1 24 -5 4 -6 3 -8
  -4 -4 -6 3 -18 -2 -28 -11 -10 -10 -21 -18 -25 -18 -4 0 -11 -4 -16 -9 -4 -5
  -3 -6 3 -3 7 4 14 1 17 -7 4 -9 -2 -12 -18 -10 -17 1 -22 -2 -18 -13 5 -12 7
  -12 14 -1 13 19 11 3 -3 -27 -6 -14 -18 -25 -27 -25 -14 0 -14 -2 -1 -10 13
  -8 12 -10 -4 -10 -19 0 -19 0 0 -22 l19 -21 -26 16 c-28 18 -46 12 -28 -9 14
  -17 1 -37 -18 -29 -14 5 -14 3 -2 -12 12 -15 12 -16 -3 -10 -10 3 -20 2 -23
  -4 -4 -5 -3 -9 2 -8 19 3 23 -2 11 -15 -7 -8 -17 -11 -23 -8 -5 3 -4 -2 4 -11
  12 -15 12 -17 -4 -11 -14 6 -16 4 -9 -7 12 -20 14 -40 3 -33 -5 3 -6 10 -3 16
  4 6 2 8 -4 5 -11 -8 -11 -25 2 -45 7 -12 4 -12 -15 -1 -22 11 -23 11 -10 -5
  12 -14 12 -16 -3 -10 -9 3 -16 2 -16 -4 0 -6 6 -12 13 -15 9 -3 9 -8 -2 -18
  -8 -8 -11 -9 -8 -3 3 6 0 11 -8 11 -13 0 -13 -3 0 -23 13 -20 13 -23 0 -18
  -10 4 -13 0 -10 -15 2 -12 0 -19 -5 -16 -4 3 -7 16 -6 30 2 13 -1 22 -5 19 -5
  -3 -7 -18 -4 -34 4 -25 2 -28 -12 -23 -15 5 -14 3 2 -10 20 -16 20 -16 -3 -12
  -20 3 -21 2 -11 -17 9 -16 8 -19 -2 -13 -9 6 -10 3 -6 -9 5 -14 3 -17 -8 -13
  -8 4 -17 2 -20 -4 -4 -5 -1 -8 6 -7 6 2 14 -3 16 -10 3 -7 -1 -10 -10 -6 -10
  4 -14 -2 -13 -18 0 -13 6 -26 11 -30 6 -5 5 -8 -3 -8 -7 0 -10 -5 -6 -12 4 -7
  3 -8 -4 -4 -7 4 -12 1 -12 -8 0 -9 -8 -16 -17 -17 -11 0 -13 -3 -5 -6 6 -2 12
  -9 12 -14 0 -6 -4 -8 -9 -5 -5 3 -12 -5 -15 -19 -6 -22 -9 -24 -29 -15 -21 11
  -21 11 -3 -4 22 -18 29 -43 15 -52 -5 -3 -6 -11 -2 -17 3 -7 -4 -3 -18 8 -14
  12 -19 14 -11 4 14 -19 5 -52 -12 -42 -6 4 -2 -6 8 -22 10 -17 15 -27 11 -23
  -5 4 -15 2 -24 -5 -14 -10 -14 -10 -3 5 9 11 10 18 2 23 -6 4 -9 2 -8 -4 2 -5
  -6 -17 -17 -26 -11 -9 -14 -14 -8 -10 7 3 21 1 30 -4 15 -8 15 -10 3 -11 -17
  0 -56 -40 -40 -40 5 0 14 8 19 18 6 9 11 12 11 5 0 -6 -5 -15 -10 -18 -6 -4
  -8 -11 -4 -16 3 -5 1 -16 -6 -24 -6 -7 -10 -19 -9 -27 3 -20 -12 -49 -22 -42
  -5 3 -9 0 -9 -6 0 -6 -5 -8 -12 -4 -7 4 -8 3 -4 -5 4 -6 12 -9 17 -6 5 4 9 -1
  9 -10 0 -11 -5 -15 -15 -12 -8 4 -17 1 -21 -5 -5 -7 -2 -8 6 -3 8 5 11 3 8 -6
  -3 -8 -10 -13 -15 -12 -5 1 -9 -9 -9 -22 0 -13 4 -21 8 -19 4 3 8 1 8 -3 0 -5
  -9 -14 -19 -20 -14 -9 -19 -21 -16 -44 3 -23 1 -30 -10 -25 -9 3 -12 0 -9 -9
  3 -8 13 -12 22 -9 9 3 7 -1 -5 -7 -21 -11 -22 -13 -5 -26 16 -12 16 -13 -2 -6
  -13 4 -17 3 -12 -5 3 -6 1 -14 -5 -18 -8 -4 -9 -3 -5 4 4 7 3 12 -3 12 -19 0
  -21 -19 -4 -30 15 -9 15 -10 -6 -4 -14 4 -21 2 -17 -4 9 -15 -17 -32 -34 -22
  -24 16 -35 11 -14 -5 18 -14 17 -15 -8 -5 -16 5 -30 6 -33 0 -3 -5 -14 -7 -25
  -5 -11 2 -24 -3 -29 -12 -5 -10 -16 -14 -30 -10 -11 3 -21 1 -21 -4 0 -5 -15
  -8 -34 -6 -27 3 -33 1 -28 -11 4 -11 2 -13 -9 -6 -20 12 -40 14 -33 3 3 -5 10
  -7 15 -4 5 4 9 1 9 -4 0 -6 -8 -11 -18 -11 -10 0 -24 -6 -31 -12 -11 -11 -12
  -10 -6 1 5 9 4 12 -3 7 -5 -3 -13 0 -16 6 -3 7 -3 3 -1 -8 5 -18 1 -21 -19
  -19 -14 2 -30 -3 -37 -11 -6 -7 -16 -11 -22 -7 -6 3 -7 1 -3 -6 6 -9 11 -9 22
  0 10 8 14 8 14 0 0 -6 -5 -11 -11 -11 -5 0 -7 -5 -3 -11 4 -8 0 -8 -15 0 -18
  10 -21 9 -21 -9 0 -12 -4 -19 -10 -15 -5 3 -6 13 -3 22 5 12 2 12 -15 -3 -26
  -22 -27 -25 -8 -18 11 4 13 0 9 -15 -4 -18 -7 -18 -20 -6 -8 8 -20 15 -26 14
  -9 0 -8 -2 1 -6 6 -2 12 -9 12 -14 0 -6 -5 -7 -12 -3 -7 5 -9 2 -5 -8 4 -11 1
  -14 -12 -11 -19 5 -64 -30 -53 -42 4 -5 -1 -5 -10 -2 -20 7 -34 -8 -17 -19 8
  -5 9 -3 4 6 -5 9 -4 11 4 6 9 -6 9 -11 0 -22 -13 -15 -23 -19 -15 -5 3 5 0 11
  -7 14 -15 6 -16 -20 -3 -41 7 -11 4 -11 -13 0 -20 12 -24 10 -41 -12 -14 -18
  -15 -27 -7 -32 8 -5 8 -8 1 -8 -18 0 -24 12 -13 26 7 8 6 14 -2 20 -7 4 -9 3
  -6 -3 7 -12 -16 -36 -27 -28 -3 3 -2 -1 4 -7 14 -17 12 -32 -3 -20 -10 8 -16
  6 -26 -10 -7 -11 -8 -17 -2 -13 6 3 11 2 11 -3 0 -6 -6 -12 -14 -15 -15 -6
  -16 -23 -3 -44 4 -6 2 -15 -4 -19 -7 -4 -9 -3 -5 4 3 6 2 13 -4 17 -6 4 -8 11
  -5 16 4 5 4 9 0 9 -3 0 -10 -12 -15 -26 -9 -22 -15 -25 -36 -20 -24 6 -25 6
  -10 -9 18 -18 13 -35 -10 -35 -9 0 -12 5 -8 12 4 7 3 8 -5 4 -9 -6 -9 -11 1
  -24 11 -13 11 -14 -1 -7 -11 6 -13 4 -8 -8 3 -9 3 -16 -1 -16 -23 4 -42 -2
  -37 -11 4 -6 11 -7 17 -4 7 4 8 2 4 -4 -4 -6 -14 -9 -24 -6 -15 5 -15 4 1 -9
  17 -14 16 -15 -13 -25 -16 -6 -30 -14 -30 -17 0 -3 5 -3 10 0 6 3 10 1 10 -4
  0 -6 -5 -11 -11 -11 -7 0 -9 -9 -6 -21 4 -15 2 -18 -7 -10 -16 13 -37 -5 -29
  -25 3 -9 0 -13 -8 -11 -8 2 -11 2 -6 0 15 -9 6 -25 -11 -19 -16 6 -16 5 1 -8
  17 -13 16 -14 -3 -19 -14 -3 -18 -10 -14 -21 4 -11 2 -16 -7 -14 -7 2 -13 -3
  -14 -10 0 -7 -7 -17 -15 -22 -8 -5 -10 -10 -4 -10 16 0 35 25 27 34 -4 4 0 4
  9 1 15 -6 14 -9 -6 -28 -13 -12 -22 -30 -21 -39 2 -11 -2 -15 -11 -11 -10 4
  -12 0 -7 -13 6 -17 5 -17 -10 -5 -15 12 -17 12 -11 -3 3 -9 10 -16 15 -16 5 0
  9 -5 9 -11 0 -5 -5 -7 -10 -4 -6 3 -10 1 -10 -5 0 -6 -5 -8 -10 -5 -5 3 -10 1
  -10 -4 0 -6 4 -11 9 -11 18 0 5 -30 -25 -56 -16 -14 -23 -23 -16 -20 16 9 16
  -6 0 -23 -11 -11 -8 -12 12 -6 24 7 24 7 5 -8 -11 -8 -23 -13 -27 -11 -4 3 -5
  -3 -1 -12 5 -13 3 -15 -7 -9 -8 5 -11 4 -6 -3 3 -6 2 -13 -3 -17 -6 -3 -8 -12
  -5 -20 4 -8 11 -12 17 -8 6 3 7 1 3 -6 -4 -6 -11 -9 -16 -6 -5 3 -11 1 -15 -5
  -3 -5 -1 -10 6 -10 7 0 4 -7 -7 -15 -13 -11 -14 -13 -3 -9 12 4 16 -1 15 -18
  -1 -14 -7 -23 -17 -22 -18 1 -25 -52 -9 -71 9 -11 6 -12 -12 -8 l-23 6 20 -19
  c12 -10 14 -14 6 -9 -12 8 -13 6 -8 -7 6 -17 -7 -26 -16 -10 -2 4 -3 2 -1 -4
  1 -6 -2 -16 -8 -22 -6 -6 -6 -12 1 -16 6 -4 11 -12 11 -17 0 -6 -6 -7 -12 -3
  -10 6 -10 4 -2 -7 12 -16 12 -29 0 -48 -6 -9 -5 -12 1 -8 7 4 10 -2 9 -16 -1
  -18 -6 -23 -21 -19 l-20 4 20 -16 c11 -10 15 -15 8 -12 -13 7 -28 -28 -18 -44
  4 -6 11 -7 17 -4 7 4 8 2 4 -5 -4 -6 -12 -9 -17 -6 -5 4 -9 1 -9 -4 0 -6 4
  -11 9 -11 5 0 8 -8 6 -17 -2 -10 -4 -22 -4 -27 -1 -4 -11 -6 -22 -3 -16 4 -19
  3 -11 -5 9 -9 7 -17 -6 -32 -9 -11 -12 -16 -5 -13 6 4 14 3 18 -3 4 -6 12 -7
  18 -3 7 4 6 0 -2 -10 -16 -20 -26 -23 -15 -4 5 8 2 8 -9 -2 -18 -15 -23 -26
  -7 -16 18 11 24 -27 7 -40 -20 -14 -22 -26 -4 -22 15 3 10 -45 -7 -55 -10 -7
  -1 -12 17 -9 5 1 5 -3 2 -9 -4 -6 -14 -9 -22 -6 -8 3 -12 2 -8 -3 3 -5 2 -11
  -2 -14 -5 -2 -2 -2 5 0 7 1 10 -2 7 -8 -4 -5 -1 -16 5 -24 8 -9 8 -15 2 -15
  -12 0 -11 -18 2 -39 7 -10 6 -12 -4 -6 -10 6 -12 3 -7 -14 5 -19 3 -20 -11 -9
  -10 8 -13 9 -9 1 4 -6 3 -14 -2 -18 -6 -3 -8 -12 -4 -21 3 -8 -3 -24 -13 -36
  -19 -21 -19 -21 3 -9 24 12 45 15 26 3 -7 -4 -14 -23 -15 -42 -2 -19 -7 -38
  -13 -42 -6 -5 -5 -8 3 -8 7 0 10 -5 7 -11 -4 -6 -12 -8 -19 -6 -7 3 -11 -7
  -11 -24 -1 -16 3 -25 10 -21 7 4 6 1 -1 -9 -12 -16 -12 -29 0 -48 6 -10 5 -12
  -2 -7 -8 5 -12 -2 -12 -19 0 -15 -4 -24 -10 -20 -5 3 -10 -1 -10 -10 0 -10 5
  -14 12 -9 10 6 11 4 1 -7 -17 -17 -17 -32 0 -23 9 6 9 5 -1 -8 -7 -8 -11 -35
  -10 -58 2 -31 -1 -44 -12 -47 -13 -4 -13 -3 0 6 9 7 10 11 3 11 -18 0 -27 -21
  -13 -30 10 -6 8 -9 -6 -13 -16 -4 -17 -5 -1 -6 9 0 17 -6 17 -12 0 -6 -7 -8
  -16 -5 -10 4 -13 2 -7 -7 4 -6 8 -15 8 -19 0 -3 4 -10 9 -15 5 -4 6 -3 2 4 -3
  6 -3 14 2 17 18 11 8 -25 -12 -41 -20 -17 -20 -17 -7 0 16 20 5 23 -14 3 -11
  -11 -12 -15 -2 -19 15 -5 15 -83 0 -80 -5 1 -15 -7 -22 -19 -7 -11 -8 -17 -2
  -14 5 4 9 -2 8 -14 -1 -11 -4 -20 -8 -20 -4 0 -10 -7 -13 -16 -5 -14 -4 -15 9
  -4 13 11 14 10 9 -4 -6 -15 -18 -20 -37 -17 -5 1 -5 -4 0 -11 4 -7 6 -21 5
  -30 -2 -10 3 -18 10 -18 10 0 9 -3 -2 -10 -9 -6 -17 -5 -22 3 -9 14 -10 7 -10
  -65 -1 -27 -5 -48 -10 -48 -5 0 -6 5 -3 10 3 6 2 10 -3 10 -6 0 -13 -7 -16
  -16 -3 -8 -2 -13 2 -10 4 3 14 -5 22 -17 12 -21 12 -21 -5 -7 -17 14 -18 13
  -12 -4 6 -14 4 -17 -10 -12 -17 6 -17 5 -1 -8 22 -16 24 -30 3 -23 -8 4 -17 2
  -20 -3 -4 -6 2 -10 12 -11 14 0 14 -2 -4 -9 -22 -9 -32 -21 -15 -19 4 1 14 1
  22 0 13 -1 13 -3 0 -10 -8 -6 -18 -7 -24 -4 -5 3 -6 1 -2 -6 4 -6 4 -17 -1
  -24 -8 -10 -10 -32 -3 -39 7 -9 5 -46 -2 -42 -5 4 -7 13 -4 21 4 8 1 11 -5 7
  -6 -3 -9 -15 -6 -25 3 -11 1 -19 -4 -19 -5 0 -9 5 -9 10 0 6 -5 10 -12 10 -6
  0 -3 -9 7 -20 10 -11 13 -20 8 -20 -6 0 -10 -8 -9 -18 0 -9 -5 -16 -12 -14 -8
  1 -11 -2 -8 -7 4 -5 3 -11 -1 -14 -5 -2 -3 -2 4 -1 7 2 15 -1 18 -7 4 -5 1 -8
  -7 -7 -8 2 -12 -4 -10 -16 3 -18 2 -18 -15 -6 -15 12 -16 12 -5 0 16 -18 16
  -33 -1 -25 -6 4 -4 0 6 -8 16 -14 16 -15 -5 -20 -12 -4 -19 -9 -15 -13 4 -4
  -1 -17 -10 -28 -11 -13 -12 -16 -3 -9 11 8 18 8 28 -3 7 -8 8 -14 3 -14 -6 0
  -8 -8 -5 -17 5 -15 4 -15 -4 -3 -6 8 -8 18 -5 24 3 5 1 6 -5 2 -8 -5 -8 -15
  -1 -33 9 -24 8 -25 -8 -12 -10 7 -15 9 -11 5 4 -5 3 -15 -3 -23 -6 -7 -8 -13
  -3 -13 5 0 2 -5 -6 -11 -13 -9 -12 -10 2 -5 10 3 20 0 24 -6 4 -6 3 -8 -3 -5
  -6 4 -17 -1 -24 -10 -8 -9 -9 -14 -4 -11 6 4 12 -3 12 -15 2 -17 0 -19 -7 -7
  -8 13 -11 13 -22 1 -7 -8 -8 -11 -2 -8 7 4 14 0 18 -8 3 -10 -1 -15 -12 -15
  -15 0 -15 -2 -2 -10 13 -8 12 -10 -2 -10 -20 0 -24 -15 -6 -26 7 -5 8 -3 3 6
  -6 9 -4 11 4 5 9 -5 10 -10 2 -18 -7 -7 -15 -6 -27 4 -16 13 -16 12 -4 -8 8
  -12 18 -19 22 -17 4 3 4 -5 0 -18 -5 -13 -8 -35 -7 -50 0 -15 -2 -25 -5 -23
  -3 2 -12 0 -20 -6 -10 -6 -11 -9 -2 -9 6 0 12 -4 12 -10 0 -5 -8 -7 -18 -4
  -15 5 -15 4 1 -6 18 -11 18 -12 0 -26 -13 -10 -14 -13 -2 -9 20 7 22 -22 2
  -29 -9 -4 -12 -1 -7 7 5 9 3 8 -7 -1 -12 -11 -12 -14 1 -22 10 -7 11 -10 3
  -10 -7 0 -13 -5 -13 -11 0 -5 6 -7 13 -3 6 4 1 -6 -13 -22 -14 -15 -18 -23 -9
  -16 14 11 16 9 17 -13 0 -15 -5 -22 -12 -19 -6 3 -3 -1 6 -9 19 -15 13 -32 -7
  -19 -6 4 -2 -1 8 -11 18 -16 15 -22 -8 -17 -5 1 -1 -8 10 -20 14 -16 15 -21 5
  -18 -9 2 -14 -3 -12 -11 2 -11 0 -12 -11 -3 -12 10 -14 7 -11 -20 2 -17 9 -35
  15 -39 8 -5 7 -8 -1 -11 -17 -5 -21 -37 -8 -61 8 -15 7 -18 -3 -12 -9 6 -11 3
  -6 -9 4 -9 3 -15 -2 -12 -5 3 -12 -2 -15 -11 -4 -9 -2 -19 3 -22 6 -4 6 -12 1
  -21 -5 -9 -5 -19 1 -26 7 -8 6 -14 -1 -19 -5 -3 -10 -11 -10 -16 0 -6 3 -8 7
  -6 5 3 8 -5 8 -18 0 -13 -3 -21 -7 -18 -5 2 -8 -3 -8 -12 0 -9 4 -14 8 -11 4
  2 7 -8 6 -22 0 -15 6 -33 15 -40 15 -12 15 -13 0 -9 -9 3 -16 -1 -16 -9 0 -7
  4 -11 8 -9 4 3 7 -10 7 -28 -1 -55 2 -68 12 -62 5 3 10 1 10 -4 0 -6 -8 -11
  -17 -11 -16 -1 -16 -2 1 -15 11 -8 15 -15 10 -15 -6 0 -11 -6 -12 -12 -7 -81
  -7 -130 1 -135 6 -3 7 -1 3 5 -4 7 -2 12 4 12 7 0 10 -6 7 -12 -2 -7 -12 -11
  -22 -10 -15 3 -17 1 -8 -10 7 -7 10 -32 9 -55 -2 -23 0 -40 4 -38 4 2 7 -2 7
  -9 0 -8 -7 -12 -15 -8 -11 4 -13 2 -6 -9 12 -18 13 -109 1 -109 -4 0 -5 -4 -2
  -10 11 -17 24 -11 20 10 -2 11 0 22 4 24 10 7 8 -35 -2 -51 -5 -8 -3 -13 7
  -13 9 0 16 -4 16 -10 0 -5 -6 -8 -12 -6 -7 1 -10 1 -5 -1 4 -3 5 -9 2 -14 -4
  -5 2 -6 12 -2 15 6 16 4 6 -8 -10 -12 -10 -18 0 -29 7 -8 8 -10 1 -7 -7 4 -14
  -3 -16 -18 -4 -20 -3 -23 8 -14 17 14 18 -3 2 -20 -11 -10 -9 -15 6 -27 11 -8
  14 -14 7 -14 -7 0 -9 -5 -6 -10 4 -6 10 -8 14 -6 11 7 8 -35 -3 -53 -7 -11 -5
  -13 10 -8 16 6 17 5 4 -6 -8 -6 -16 -19 -18 -27 -3 -10 3 -9 20 5 18 16 20 16
  9 2 -12 -15 -12 -19 4 -31 13 -9 15 -15 6 -20 -9 -6 -9 -11 0 -22 7 -9 8 -14
  1 -14 -17 0 -25 20 -13 34 9 10 7 15 -5 20 -9 4 -19 4 -22 1 -3 -3 0 -5 7 -5
  8 0 11 -6 7 -17 -4 -10 2 -26 16 -41 13 -14 16 -22 8 -17 -8 5 -12 5 -8 0 4
  -4 3 -14 -4 -22 -6 -8 -7 -13 -2 -12 30 5 41 -2 36 -26 -2 -15 -9 -22 -16 -18
  -6 3 -7 2 -3 -2 10 -11 39 -16 32 -6 -2 4 3 8 11 8 10 0 8 -7 -8 -25 l-23 -25
  25 13 c24 13 24 12 10 -5 -12 -15 -12 -17 -1 -10 11 6 13 4 7 -10 -5 -14 -4
  -15 7 -7 10 8 13 6 13 -8 0 -10 -4 -16 -8 -14 -4 3 -5 -2 -2 -11 5 -13 9 -13
  22 -3 14 12 14 10 2 -12 -12 -22 -12 -24 3 -12 13 11 15 10 10 -10 -4 -18 -3
  -20 6 -8 9 13 11 13 11 -1 0 -8 -6 -21 -12 -29 -7 -8 -2 -6 11 5 l24 20 -12
  -23 c-8 -15 -8 -22 -1 -22 6 0 9 -4 5 -9 -3 -6 3 -8 15 -6 11 2 23 -1 26 -7 4
  -7 2 -8 -4 -4 -7 4 -12 2 -12 -3 0 -6 5 -11 11 -11 5 0 8 -4 4 -9 -3 -6 7 -8
  22 -5 21 3 24 2 13 -5 -8 -6 -11 -13 -7 -17 3 -4 14 -1 22 6 13 11 16 11 13 0
  -2 -8 4 -14 12 -15 9 0 14 -8 12 -19 -3 -14 1 -16 20 -11 21 7 22 6 5 -7 -18
  -13 -18 -14 0 -16 54 -5 68 -10 71 -25 2 -9 8 -17 13 -17 6 0 7 -5 4 -11 -4
  -6 2 -5 14 3 17 10 23 10 33 0 11 -11 10 -12 -3 -7 -9 3 -22 -2 -30 -12 -13
  -16 -12 -17 3 -5 9 8 22 11 27 8 5 -4 13 -2 16 4 8 12 54 -13 68 -37 10 -17
  41 -18 31 0 -5 9 -4 9 6 0 7 -6 19 -9 28 -6 11 5 13 3 7 -7 -6 -10 -4 -12 8
  -7 12 4 14 2 10 -11 -5 -14 -3 -14 17 3 l23 20 -13 -25 c-12 -22 -12 -24 2
  -12 13 10 17 10 21 -1 4 -11 52 -17 52 -7 0 1 10 4 22 5 12 1 21 -1 19 -4 -2
  -3 0 -15 5 -26 5 -14 8 -15 8 -5 1 9 10 16 20 16 11 0 18 -3 15 -7 -2 -4 2
  -14 10 -22 8 -8 12 -18 8 -21 -3 -4 7 0 23 8 20 10 31 12 36 5 3 -6 8 -10 10
  -8 9 5 49 -13 44 -21 -3 -4 2 -10 10 -13 8 -4 13 -1 11 6 -1 7 -1 9 1 4 3 -4
  9 -5 14 -1 5 3 12 -2 15 -10 3 -9 10 -16 16 -16 5 0 7 4 4 8 -2 4 4 8 15 8 10
  0 19 -4 19 -9 0 -4 6 -5 13 -1 9 6 9 4 -1 -8 -10 -13 -10 -18 -1 -24 8 -5 9
  -3 4 6 -6 10 -2 11 20 6 19 -5 31 -3 37 6 6 9 8 7 6 -7 -2 -15 2 -20 19 -19
  13 0 23 -4 23 -9 0 -5 6 -4 14 2 10 9 16 9 21 1 4 -6 16 -8 28 -5 20 5 20 5 4
  -5 -9 -6 -15 -16 -12 -21 4 -5 10 -7 15 -4 5 3 11 1 15 -4 3 -6 13 -7 22 -4
  12 5 14 3 8 -8 -8 -12 -6 -12 8 0 11 9 17 9 17 2 0 -6 10 -10 23 -10 12 1 33
  -2 47 -6 14 -4 30 -7 37 -7 7 -1 9 -6 6 -11 -3 -5 0 -7 8 -5 8 3 19 -2 25 -10
  14 -20 42 -24 67 -10 17 9 19 8 14 -6 -5 -14 -3 -16 12 -11 14 4 21 0 26 -16
  7 -21 8 -21 18 -4 9 16 11 15 21 -11 10 -24 13 -26 19 -11 5 13 3 16 -6 11 -6
  -4 -9 -3 -4 1 12 14 48 14 37 0 -7 -8 -1 -11 20 -9 17 1 27 -2 24 -7 -3 -5 2
  -9 11 -9 10 0 13 5 9 12 -4 7 -3 8 5 4 9 -6 9 -11 -1 -24 -11 -13 -11 -14 1
  -8 8 5 17 3 23 -5 8 -11 9 -10 4 3 -3 10 -1 20 5 23 5 4 9 3 8 -2 -3 -19 2
  -33 12 -33 5 0 7 6 3 13 -4 6 4 2 18 -10 13 -13 28 -23 34 -23 5 0 3 4 -4 9
  -10 6 -9 11 4 22 10 8 15 9 11 2 -4 -6 -3 -14 3 -18 6 -4 7 -12 4 -18 -4 -7
  -3 -9 1 -4 5 4 19 0 32 -8 23 -15 23 -15 11 4 -6 11 -15 18 -18 16 -4 -2 -7 2
  -7 10 0 13 3 13 16 1 9 -7 22 -11 29 -9 6 3 12 0 12 -7 0 -6 -6 -8 -12 -5 -7
  4 -4 -1 6 -9 23 -19 40 -20 67 -6 14 8 19 7 19 -1 0 -7 3 -9 7 -6 11 11 32
  -14 26 -31 -3 -10 -1 -13 4 -7 20 25 103 9 87 -17 -4 -7 -3 -8 5 -4 6 4 9 12
  6 17 -3 5 1 6 9 3 9 -3 13 -11 9 -18 -3 -6 -1 -6 8 2 17 16 32 16 23 0 -6 -10
  -4 -10 8 0 13 10 18 10 24 1 4 -7 3 -9 -3 -6 -5 3 -10 -1 -10 -9 0 -10 4 -11
  11 -4 14 14 29 13 20 -2 -5 -9 -2 -9 9 1 13 10 17 10 17 1 0 -9 4 -9 17 1 11
  10 14 10 9 2 -9 -17 6 -17 23 0 11 9 13 9 7 0 -4 -7 -2 -14 3 -14 6 -1 20 -3
  31 -4 11 -1 25 -3 31 -4 5 0 7 -7 3 -13 -4 -7 3 -4 16 7 13 11 20 14 16 8 -7
  -13 4 -17 32 -14 6 1 12 -8 13 -21 0 -22 1 -22 9 -3 7 16 9 16 9 4 1 -9 8 -20
  17 -23 13 -5 14 -4 6 7 -9 10 -8 14 3 14 8 0 15 -9 15 -19 0 -20 15 -24 26 -6
  4 7 3 8 -4 4 -18 -11 -14 0 5 15 11 10 14 10 9 2 -5 -9 -1 -13 11 -13 15 0 16
  -2 3 -10 -8 -5 -10 -10 -5 -10 6 0 20 6 31 14 17 13 21 13 21 1 0 -8 -5 -11
  -11 -8 -6 4 -5 -1 3 -10 8 -10 16 -15 19 -12 3 3 11 0 18 -6 10 -8 11 -5 7 13
  -5 23 -5 23 11 3 10 -11 14 -14 11 -7 -6 10 -3 11 11 3 11 -5 27 -12 37 -15
  11 -4 15 -11 11 -18 -4 -7 2 -5 13 5 17 15 26 16 41 8 12 -6 29 -8 39 -5 17 6
  17 6 0 -7 -15 -13 -12 -14 34 -17 35 -2 55 1 61 10 8 10 9 9 5 -3 -3 -9 1 -16
  9 -16 7 0 10 5 7 10 -3 6 -1 7 6 3 6 -4 20 -2 29 6 16 12 16 11 2 -6 -14 -18
  -13 -19 8 -14 16 4 22 2 20 -7 -2 -8 2 -13 7 -12 6 1 9 4 8 7 -1 3 8 7 20 7
  12 1 17 -1 12 -5 -6 -4 -11 -14 -13 -22 -1 -8 8 -3 22 12 23 26 25 27 31 8 4
  -11 11 -20 16 -20 6 0 8 4 5 8 -2 4 0 14 6 22 8 12 9 12 4 -3 -4 -14 -1 -16
  19 -13 15 3 23 1 20 -5 -4 -5 -10 -7 -15 -4 -4 3 -14 -3 -21 -13 -12 -15 -12
  -16 1 -6 19 13 28 12 60 -5 l25 -14 -19 22 -20 22 27 -14 c15 -8 39 -13 53
  -11 15 1 28 -4 31 -13 5 -12 7 -12 14 -1 7 11 11 10 19 -2 5 -8 10 -11 10 -7
  0 4 9 3 20 -3 15 -8 18 -8 14 3 -8 22 28 17 55 -7 13 -11 21 -15 17 -8 -4 7
  -1 12 9 12 10 0 13 5 9 13 -5 8 -2 8 9 -2 18 -15 23 -26 7 -16 -5 3 -10 2 -10
  -3 0 -13 100 -20 108 -8 3 5 -1 6 -8 1 -9 -5 -11 -4 -6 4 6 9 11 9 22 0 8 -6
  14 -8 14 -4 0 4 6 3 13 -2 6 -6 20 -9 30 -8 9 2 15 -1 11 -6 -3 -5 -10 -7 -15
  -4 -5 4 -9 1 -9 -5 0 -7 8 -9 21 -5 16 6 20 4 14 -6 -5 -8 2 -5 14 5 15 14 20
  15 16 5 -4 -11 1 -15 19 -15 14 0 22 4 20 8 -3 5 -10 5 -16 2 -7 -4 -8 -2 -4
  4 8 13 36 5 36 -10 0 -5 4 -7 9 -3 5 3 15 0 23 -7 17 -16 42 -22 33 -8 -3 5
  -1 10 4 10 6 0 11 -4 11 -10 0 -5 5 -10 11 -10 5 0 7 5 3 12 -4 6 -3 8 4 4 5
  -3 12 -3 15 1 2 5 2 2 0 -6 -2 -9 2 -11 13 -7 8 3 18 6 20 6 3 0 2 5 -2 11 -5
  8 -1 8 14 0 12 -6 24 -17 28 -24 5 -8 2 -7 -10 2 -13 11 -19 12 -29 2 -9 -10
  -8 -11 7 -5 13 5 17 4 13 -3 -8 -12 18 -12 29 0 11 10 24 8 24 -4 0 -5 -4 -8
  -8 -5 -5 3 -9 -1 -9 -9 0 -8 4 -15 9 -15 4 0 8 5 8 11 0 6 7 9 15 5 8 -3 21 2
  30 10 13 14 15 13 15 -5 0 -23 10 -27 27 -10 8 8 13 7 18 -2 6 -8 4 -10 -5 -4
  -8 5 -11 4 -7 -2 3 -5 22 -8 42 -7 24 2 33 0 29 -8 -4 -7 -3 -8 4 -4 7 4 12
  15 12 24 1 15 2 15 11 -2 9 -15 13 -16 20 -5 6 10 9 11 9 2 0 -7 5 -13 11 -13
  5 0 7 5 3 11 -4 8 0 8 15 0 23 -13 28 -22 9 -17 -7 1 -10 1 -5 -1 4 -3 4 -10
  1 -15 -4 -7 -2 -8 5 -4 6 4 20 2 29 -5 14 -11 15 -11 5 1 -21 23 -15 35 7 15
  22 -20 28 -7 8 14 -11 11 -9 11 9 0 12 -7 20 -16 18 -19 -2 -4 2 -7 10 -7 18
  0 19 9 3 26 -11 11 -9 11 9 0 12 -7 21 -17 20 -22 -1 -5 4 -12 11 -14 6 -3 12
  0 12 7 0 6 -4 8 -10 5 -6 -3 -7 1 -4 10 6 14 8 14 19 -2 7 -10 11 -22 7 -28
  -3 -5 2 -4 11 4 14 11 17 11 18 0 0 -8 4 -5 9 6 7 16 9 16 9 4 1 -14 11 -16
  55 -15 30 1 52 -2 50 -6 -3 -5 -10 -6 -15 -3 -5 4 -9 2 -9 -4 0 -12 59 -12 83
  1 14 7 17 4 17 -13 0 -14 5 -19 14 -16 7 3 19 0 26 -6 7 -7 10 -7 7 -1 -7 13
  68 12 80 -1 5 -4 2 -5 -6 0 -10 6 -12 4 -6 -5 6 -10 10 -10 19 2 6 8 17 13 25
  10 9 -3 11 0 6 8 -5 9 -4 11 3 6 7 -4 12 -15 12 -26 0 -21 26 -34 36 -18 4 6
  3 8 -4 4 -6 -3 -14 -1 -18 5 -5 8 -3 9 6 4 10 -6 12 -4 6 11 -6 16 -4 15 14
  -4 21 -23 23 -23 43 -5 19 16 20 16 8 1 -15 -20 -1 -24 18 -5 10 10 11 8 5 -8
  -7 -18 -6 -18 9 -6 13 10 17 10 17 1 0 -10 3 -10 14 -1 11 9 16 9 22 0 5 -8 3
  -9 -7 -4 -12 8 -12 6 0 -8 7 -9 17 -14 22 -11 5 3 9 -1 10 -8 0 -7 4 -4 9 7 5
  11 9 15 9 9 1 -13 39 -12 60 0 10 6 12 5 7 -2 -4 -7 -1 -12 9 -12 10 0 13 5 9
  13 -6 9 -5 9 8 0 8 -7 19 -9 23 -5 5 4 5 1 1 -6 -4 -7 -11 -10 -16 -7 -5 3
  -11 2 -14 -3 -6 -11 30 -14 112 -9 37 2 46 -2 44 -24 -1 -3 23 -5 51 -4 29 1
  59 -3 67 -9 13 -9 13 -9 2 6 -10 12 -10 18 -1 24 8 5 9 3 4 -6 -5 -9 -1 -11
  16 -6 13 3 18 3 12 0 -19 -9 -16 -24 4 -17 10 4 14 2 9 -5 -3 -6 -1 -14 5 -18
  7 -4 9 -3 6 3 -13 21 23 22 43 1 l19 -21 -4 21 c-2 15 0 19 11 15 7 -3 12 -8
  9 -12 -2 -4 2 -8 10 -8 8 0 12 4 9 9 -10 15 9 8 21 -8 6 -10 24 -18 40 -20 26
  -3 26 -2 9 12 -18 13 -17 13 6 5 14 -5 24 -14 22 -21 -1 -6 2 -9 8 -5 6 3 8
  11 5 16 -4 5 -2 9 4 9 5 0 12 -6 14 -12 3 -8 6 -7 6 4 1 9 5 19 10 22 5 4 7
  -3 4 -15 -5 -16 -2 -20 13 -17 11 2 24 10 31 18 9 11 13 11 14 3 1 -7 2 -17 3
  -22 0 -5 5 -13 10 -18 5 -4 7 -3 3 2 -3 6 4 22 14 35 19 23 20 24 9 2 -10 -21
  -9 -22 14 -16 17 4 26 2 26 -6 0 -6 -6 -8 -12 -4 -8 4 -9 3 -5 -2 12 -13 97
  -13 89 0 -3 6 2 5 11 -3 14 -11 17 -11 17 0 0 12 2 12 9 0 7 -11 9 -11 14 0 4
  11 6 11 6 0 1 -11 5 -10 16 5 10 13 13 14 10 3 -5 -12 0 -16 21 -15 15 1 29 7
  32 14 2 7 8 12 13 12 4 0 6 -8 2 -18 -4 -12 0 -10 11 5 13 18 21 21 40 13 13
  -5 27 -6 30 -3 14 15 55 11 59 -5 4 -15 5 -15 6 1 1 14 5 16 20 8 17 -9 18 -8
  14 12 -5 22 -5 22 10 2 16 -20 16 -19 12 5 -4 24 -4 24 10 6 8 -11 15 -15 15
  -10 0 6 14 9 30 8 17 -1 33 2 36 7 3 5 10 6 16 3 6 -4 8 -2 5 3 -7 11 28 25
  38 15 11 -11 34 -10 29 1 -2 7 7 17 21 24 14 6 23 8 20 3 -3 -4 2 -11 11 -14
  9 -3 12 -2 9 5 -4 6 1 9 11 7 12 -2 18 2 16 10 -1 8 2 11 8 7 6 -3 8 -11 5
  -16 -4 -5 -2 -9 3 -9 5 0 12 9 15 21 3 12 10 19 15 16 4 -4 20 0 35 8 15 8 27
  10 27 4 0 -6 4 -8 10 -4 5 3 6 13 3 22 -6 15 -5 16 9 3 12 -12 13 -18 4 -30
  -9 -13 -9 -13 5 -2 9 7 23 11 30 10 9 -2 13 4 11 16 -3 14 1 17 13 12 11 -4
  14 -2 10 7 -4 6 0 4 8 -6 14 -17 15 -16 20 3 6 23 26 23 43 0 9 -11 11 -9 9
  13 -3 23 -1 25 15 17 26 -14 30 -13 23 8 -5 14 -3 13 10 -3 l16 -20 1 20 1 20
  9 -20 c9 -21 9 -21 15 9 2 10 9 24 16 30 9 8 9 6 0 -11 -7 -13 -8 -23 -2 -23
  5 0 12 6 14 13 4 9 6 9 6 -1 1 -10 5 -10 16 2 9 8 23 12 32 9 11 -4 14 -3 9 5
  -4 7 -1 12 9 12 10 0 13 -5 9 -12 -4 -7 2 -5 13 5 11 9 27 15 36 12 8 -4 18
  -2 22 4 3 6 0 9 -8 5 -8 -3 -18 -1 -22 5 -3 7 0 8 9 5 10 -4 16 -1 16 7 1 8 8
  3 16 -11 8 -14 13 -17 10 -7 -3 11 0 17 10 17 9 0 12 -5 8 -12 -5 -8 0 -7 11
  2 10 8 19 13 21 10 1 -3 6 -1 11 4 4 5 3 7 -3 3 -6 -3 -11 0 -11 7 0 11 5 11
  26 0 18 -10 29 -10 38 -2 7 6 13 7 14 2 0 -5 4 1 10 14 5 13 13 20 19 17 6 -4
  7 -11 4 -17 -4 -7 -2 -8 5 -4 6 4 9 11 6 16 -3 5 0 12 6 16 7 4 9 3 5 -4 -3
  -6 -2 -13 4 -17 9 -6 14 7 11 28 0 4 4 7 9 7 6 0 10 -6 8 -12 -2 -7 2 -14 7
  -15 6 -2 10 4 10 11 0 8 4 18 9 23 5 4 7 4 4 -2 -3 -5 0 -15 7 -22 10 -10 14
  -9 19 2 3 9 18 15 36 15 18 0 29 4 25 10 -3 6 -1 10 4 10 6 0 11 -6 12 -12 0
  -7 5 -2 10 11 6 16 13 20 22 14 29 -23 44 -22 41 3 -1 13 2 22 7 18 5 -3 7 -9
  4 -14 -3 -4 4 -6 15 -3 11 3 23 9 26 14 3 5 11 9 17 9 7 0 6 -4 -3 -10 -12 -7
  -10 -9 7 -7 12 0 19 5 16 11 -4 5 1 7 11 3 13 -5 17 -3 13 6 -3 8 1 14 9 14 7
  0 10 -5 7 -11 -4 -6 1 -5 10 3 14 11 17 11 17 0 0 -8 5 -6 13 6 9 12 16 14 21
  7 4 -6 13 -9 21 -6 8 4 13 10 10 14 -3 4 2 11 11 14 8 3 13 2 9 -3 -6 -11 22
  -8 32 4 4 4 2 5 -4 1 -7 -4 -13 -5 -13 -2 0 3 10 10 21 17 17 9 20 8 14 -2 -6
  -9 -3 -11 9 -6 10 4 27 7 38 7 13 0 18 5 15 13 -4 10 2 13 20 9 15 -3 29 1 34
  9 7 11 9 11 9 1 0 -7 5 -10 10 -7 6 4 8 11 5 16 -3 5 2 6 11 2 12 -5 15 -3 9
  6 -6 10 -3 11 12 3 16 -9 23 -7 38 11 12 14 20 17 23 9 2 -7 8 -10 12 -7 5 3
  6 13 3 22 -5 13 -3 13 21 -2 21 -14 25 -14 21 -3 -3 8 1 21 10 28 8 7 15 9 15
  5 0 -4 12 0 26 10 15 9 23 12 20 6 -4 -6 0 -11 8 -11 18 0 20 11 6 28 -7 8 -7
  9 1 3 6 -5 19 -7 28 -3 14 5 15 4 1 -14 -14 -18 -14 -18 3 -5 9 7 16 21 15 29
  -2 11 6 16 24 17 19 1 25 -2 22 -14 -3 -9 1 -6 7 7 7 12 18 22 25 22 8 0 11 6
  8 15 -6 14 12 21 40 16 5 -1 3 6 -5 15 -13 16 -12 16 8 6 29 -16 41 -15 19 1
  -16 12 -16 13 3 14 12 1 21 -3 21 -9 0 -6 3 -8 6 -5 4 4 1 13 -5 21 -10 12 -8
  14 13 12 17 -2 27 4 35 21 7 15 17 23 25 20 19 -8 28 3 15 19 -7 9 -6 12 8 9
  10 -1 30 9 45 23 21 20 25 29 17 43 -7 15 -6 17 6 13 8 -4 15 -11 15 -17 0 -6
  3 -7 6 -4 4 4 1 13 -6 22 -11 13 -10 14 6 8 17 -6 18 -5 4 12 -9 11 -10 16 -2
  11 7 -4 12 -1 12 8 0 10 6 13 18 9 15 -6 16 -5 2 12 -9 11 -10 16 -2 11 6 -4
  12 -2 12 3 0 6 5 11 11 11 5 0 7 -6 3 -12 -4 -8 -3 -10 2 -5 5 5 9 14 9 20 1
  7 6 11 12 10 13 -3 12 15 -1 36 -7 10 -6 12 4 6 10 -6 12 -4 6 10 -6 16 -4 16
  10 4 16 -13 16 -12 5 9 -7 13 -10 26 -7 30 3 3 6 0 6 -6 0 -7 4 -12 10 -12 5
  0 6 8 3 18 -6 14 -4 15 8 5 11 -9 14 -7 16 14 1 19 -1 22 -8 12 -7 -11 -8 -9
  -6 6 4 30 17 47 32 41 9 -3 11 2 7 16 -3 13 -1 19 5 15 6 -4 19 3 29 16 12 13
  13 17 3 9 -9 -6 -20 -8 -24 -4 -5 4 -5 1 0 -7 6 -10 4 -12 -5 -6 -10 6 -10 11
  3 20 9 7 14 15 10 18 -3 4 0 7 8 7 10 0 14 11 13 35 -1 19 2 33 6 30 10 -6 23
  12 27 35 1 8 -3 18 -10 22 -8 5 -5 8 8 9 17 1 16 2 -5 9 -15 5 -18 8 -8 9 10
  1 15 8 13 19 -1 9 8 29 21 43 18 19 20 26 10 26 -8 0 -13 -4 -10 -9 3 -4 1 -8
  -5 -8 -5 0 -9 9 -8 20 1 12 6 19 14 15 10 -3 11 0 3 15 -13 24 -13 33 0 25 6
  -3 7 1 4 9 -3 9 -10 13 -16 10 -5 -3 -5 3 1 15 33 64 34 66 20 54 -18 -18 -34
  -16 -19 2 6 8 9 23 5 36 -6 18 -4 20 17 14 l23 -7 -23 20 c-19 17 -20 21 -7
  26 9 3 13 2 10 -4 -3 -6 -2 -10 3 -10 6 0 8 20 7 45 -2 25 1 48 6 51 6 3 5 11
  -2 20 -6 8 -9 25 -7 39 5 22 3 23 -10 13 -13 -11 -14 -11 -7 2 13 20 15 42 7
  54 -13 21 -10 37 9 49 10 6 19 15 19 20 0 4 -4 6 -9 3 -11 -7 -8 21 4 31 4 4
  5 2 1 -4 -4 -7 -3 -13 1 -13 5 0 8 33 8 74 0 61 -3 73 -15 69 -10 -3 -9 -1 3
  7 9 6 17 19 17 28 0 15 -2 15 -10 2 -13 -21 -13 -3 1 22 9 16 8 19 -2 13 -8
  -6 -10 -4 -3 6 12 20 14 40 3 33 -5 -3 -9 0 -9 5 0 6 5 11 11 11 8 0 7 6 -2
  17 -8 9 -9 14 -3 10 13 -8 11 63 -2 97 -5 12 -4 17 3 13 5 -3 10 0 10 8 0 8
  -5 13 -11 12 -6 -1 -11 20 -12 49 -1 29 -5 58 -9 65 -6 9 -3 11 10 5 14 -5 15
  -3 7 6 -6 7 -11 18 -12 23 -1 6 -4 12 -7 15 -4 3 -3 0 1 -7 3 -6 2 -14 -3 -17
  -5 -4 -8 2 -6 11 1 11 9 17 19 15 16 -3 16 -1 1 21 -13 20 -13 26 -3 30 8 4 7
  6 -4 6 -10 1 -18 5 -18 11 0 5 6 7 13 4 10 -3 13 5 11 31 -2 20 -6 41 -10 47
  -4 6 -3 8 3 5 11 -7 9 54 -2 72 -3 5 1 12 7 14 9 4 9 6 -1 6 -11 1 -10 5 5 17
  10 8 14 13 8 10 -8 -4 -13 9 -16 39 -2 25 1 47 7 49 5 3 4 5 -4 5 -11 1 -10 5
  5 17 10 8 13 12 6 9 -8 -4 -13 -2 -11 6 3 24 -1 43 -8 36 -3 -4 -12 -2 -20 5
  -11 9 -11 14 4 30 13 15 14 18 2 13 -10 -4 -16 0 -16 9 0 8 4 13 9 10 17 -11
  -1 91 -19 105 -17 13 -17 13 0 7 17 -5 16 -3 -2 20 -12 15 -21 32 -21 38 0 6
  5 4 10 -4 8 -12 10 -12 11 5 0 11 2 28 4 37 2 10 -4 23 -13 29 -16 10 -15 10
  1 5 9 -3 17 -1 17 4 0 6 -4 10 -9 10 -5 0 -12 7 -15 16 -5 14 -4 15 9 4 9 -7
  18 -10 22 -6 3 3 1 6 -6 6 -7 0 -9 5 -6 10 3 6 1 10 -4 10 -6 0 -11 5 -11 11
  0 6 6 7 13 2 6 -4 5 4 -5 19 -16 24 -16 27 0 49 15 23 15 23 -1 10 -15 -12
  -20 -12 -30 -1 -9 10 -9 11 1 5 10 -5 13 -2 10 11 -2 11 -10 18 -17 16 -7 -1
  -10 2 -6 8 3 6 10 8 15 5 4 -3 11 2 14 11 4 12 2 15 -9 11 -8 -4 -17 -1 -21 5
  -5 7 -2 8 6 3 10 -6 12 -4 7 8 -3 9 -1 19 5 23 7 4 8 3 4 -4 -4 -7 -3 -12 3
  -12 5 0 9 9 8 20 -1 12 -7 18 -14 16 -7 -3 -10 1 -6 10 3 7 -1 14 -8 14 -7 0
  -9 3 -6 6 4 4 13 2 20 -4 11 -9 13 -7 11 11 -1 12 -3 24 -4 27 -1 3 -2 8 -1
  12 0 4 -5 5 -13 2 -7 -3 -16 2 -19 10 -4 11 -1 16 11 17 14 0 14 2 -3 9 l-20
  9 20 0 c11 1 16 5 10 9 -5 4 -16 17 -23 29 -10 20 -10 23 4 23 8 0 12 -4 9
  -10 -3 -5 -1 -10 4 -10 14 0 14 17 1 25 -12 7 -9 42 5 65 8 13 7 13 -10 0 -17
  -14 -18 -14 -6 7 10 20 9 22 -5 16 -12 -4 -15 -3 -10 6 5 7 0 21 -9 31 -15 16
  -15 22 -5 35 7 8 9 15 4 15 -5 0 -1 7 9 14 18 14 17 14 -2 21 -12 3 -21 11
  -21 16 0 6 4 8 8 5 4 -2 14 0 22 6 12 8 11 9 -4 4 -14 -5 -17 -2 -12 10 4 11
  0 18 -14 21 -19 5 -19 6 2 22 17 14 18 18 5 18 -9 0 -14 -4 -11 -9 3 -4 0 -8
  -5 -8 -15 0 -14 13 2 29 10 10 9 12 -2 9 -7 -2 -15 3 -16 10 -2 7 -1 8 1 3 3
  -6 12 -7 20 -4 12 4 12 8 -3 18 -17 13 -17 14 0 20 16 7 16 8 1 20 -13 9 -14
  14 -4 20 9 6 6 11 -11 22 l-24 14 23 -7 c21 -5 23 -4 13 14 -7 13 -7 22 0 29
  8 8 7 13 -2 18 -8 6 -10 4 -4 -5 5 -9 4 -11 -4 -6 -6 4 -9 12 -5 17 3 5 10 7
  15 4 5 -4 9 -1 9 4 0 6 -6 11 -12 11 -9 0 -8 4 2 10 10 6 11 10 3 10 -7 0 -13
  5 -13 11 0 5 5 7 12 3 7 -5 8 -3 3 6 -6 10 -3 12 11 7 15 -6 14 -3 -4 11 l-24
  18 24 16 c19 14 20 16 4 15 -26 -3 -40 38 -18 55 15 11 15 11 5 -2 -8 -11 -9
  -20 -2 -30 8 -12 9 -11 7 5 -2 13 2 19 11 17 12 -3 12 -1 1 13 -8 9 -22 14
  -32 12 -10 -3 -16 -1 -12 4 3 5 12 9 19 9 12 0 12 4 -2 19 -9 11 -21 17 -26
  14 -6 -4 -7 -1 -2 6 5 9 10 10 18 2 18 -18 28 -12 15 8 -7 11 -15 18 -18 16
  -4 -2 -7 2 -7 10 0 8 5 11 10 8 6 -3 7 -1 3 6 -4 6 -2 19 5 27 10 12 9 13 -4
  9 -12 -5 -15 0 -13 25 1 17 -1 33 -5 36 -5 3 -6 11 -3 19 4 8 11 12 18 8 6 -4
  5 1 -3 10 -7 9 -17 15 -21 12 -5 -3 -3 6 3 19 7 13 16 22 22 19 5 -2 2 2 -7
  10 -20 16 -25 32 -6 21 6 -4 8 -3 4 4 -3 5 0 13 6 16 7 3 -3 3 -22 0 -19 -2
  -30 -1 -25 3 6 5 10 19 10 33 -1 14 1 30 4 35 7 13 4 132 -4 144 -3 5 0 13 6
  17 8 5 9 3 4 -6 -5 -9 -4 -11 4 -6 6 4 9 12 5 17 -3 5 -9 7 -14 4 -5 -3 -12 0
  -16 6 -5 8 -3 9 5 4 9 -5 12 0 11 16 -3 39 -1 51 11 44 6 -4 5 2 -3 14 -9 14
  -19 19 -33 15 -11 -3 -16 -2 -10 3 6 4 12 17 13 28 2 11 9 27 15 35 9 12 9 13
  -3 3 -19 -17 -35 -16 -21 1 7 8 9 28 6 46 -4 22 -2 29 6 25 8 -6 8 -2 0 14 -7
  11 -8 21 -4 21 4 0 1 5 -7 10 -8 5 -10 10 -4 10 7 0 14 6 17 13 3 8 -1 14 -9
  14 -7 0 -11 -4 -8 -9 3 -4 -3 -5 -12 -1 -11 4 -13 8 -6 11 16 5 15 32 0 32 -9
  0 -10 3 -2 8 18 11 13 44 -5 37 -9 -3 -5 4 9 15 19 15 20 18 6 13 -12 -4 -17
  -2 -13 3 3 6 2 16 -3 24 -5 8 -5 22 1 32 7 14 6 18 -5 18 -10 0 -13 6 -9 17 5
  12 3 14 -8 8 -8 -4 -11 -5 -7 0 4 4 3 13 -2 20 -7 8 -5 12 5 12 8 0 12 -4 9
  -9 -3 -4 -1 -8 5 -8 5 0 9 9 8 20 -1 12 -7 18 -14 16 -7 -3 -15 0 -19 6 -5 7
  -2 8 6 3 10 -6 12 -4 7 8 -4 11 -2 14 9 10 10 -4 12 0 8 10 -3 9 -11 14 -18
  11 -7 -3 -13 2 -13 10 0 8 4 13 8 10 4 -2 11 0 14 6 4 6 1 9 -6 8 -7 -2 -15 6
  -17 16 -3 15 0 17 14 12 14 -4 12 -1 -5 13 -18 14 -20 20 -10 23 8 3 11 9 7
  13 -4 4 -16 2 -25 -6 -16 -12 -17 -12 -6 2 7 9 9 20 5 24 -4 5 -2 5 4 2 6 -3
  11 0 11 8 0 8 -5 11 -10 8 -6 -4 -8 0 -4 10 3 9 2 19 -3 22 -5 3 -6 13 -3 23
  6 14 4 15 -8 5 -13 -10 -15 -10 -14 5 0 9 4 23 8 30 6 8 3 10 -10 5 -16 -6
  -16 -5 -4 10 9 11 10 17 2 17 -6 0 -11 5 -11 11 0 5 5 7 11 3 8 -4 8 0 0 15
  -7 11 -14 21 -17 21 -3 0 -2 -4 1 -10 3 -5 0 -7 -9 -4 -12 5 -13 9 -3 19 7 7
  17 10 22 7 6 -3 4 1 -2 10 -7 8 -11 17 -8 20 3 2 -2 5 -10 5 -11 0 -12 -4 -4
  -13 7 -8 6 -14 -2 -20 -7 -4 -9 -3 -5 4 3 6 2 13 -2 16 -5 3 -8 19 -7 36 1 21
  -4 34 -17 41 -12 6 -17 17 -13 28 3 10 -3 26 -15 39 -11 11 -20 26 -20 32 0 6
  -4 9 -9 6 -5 -3 -15 2 -22 11 -11 14 -11 15 -1 9 10 -6 13 -2 10 15 -2 16 -9
  23 -20 21 -10 -2 -18 2 -18 8 0 6 5 8 10 5 6 -3 10 1 10 10 0 9 -7 15 -16 13
  -10 -2 -19 4 -21 12 -4 13 -3 13 6 0 6 -8 11 -10 11 -5 0 6 -7 20 -15 31 -8
  12 -11 24 -7 28 3 4 -2 4 -12 0 -11 -4 -17 -3 -14 2 7 11 -17 35 -26 26 -4 -3
  -4 1 -1 10 4 9 1 19 -6 24 -8 4 -10 3 -5 -4 4 -7 5 -12 2 -12 -3 0 -10 10 -17
  21 -7 13 -7 19 -1 15 6 -3 14 -2 17 4 4 6 3 9 -2 8 -4 -1 -18 2 -31 6 -20 7
  -21 10 -10 24 10 12 10 14 1 8 -8 -4 -13 -1 -13 8 0 9 -3 15 -7 15 -22 -4 -32
  4 -43 31 -11 27 -27 36 -55 30 -5 -1 -4 4 3 11 6 7 12 18 12 24 0 5 -5 3 -10
  -5 -8 -13 -11 -13 -22 -1 -9 10 -10 12 -1 7 9 -5 11 -2 7 9 -5 11 -10 13 -19
  5 -9 -7 -16 -6 -25 5 -7 8 -17 12 -23 8 -6 -4 -7 -1 -2 7 6 10 4 12 -7 7 -16
  -6 -19 8 -6 28 4 6 -2 11 -12 12 -10 1 -18 -4 -16 -10 1 -7 1 -9 -1 -4 -3 4
  -10 4 -15 1 -7 -4 -8 -2 -4 4 4 7 2 12 -4 12 -6 0 -9 4 -6 8 7 12 -39 36 -53
  28 -6 -4 -11 0 -11 9 0 9 5 13 10 10 6 -3 10 -1 10 4 0 17 -18 13 -30 -6 -10
  -16 -11 -16 -7 2 3 16 -1 21 -17 21 -12 0 -25 -5 -29 -10 -5 -6 -5 -1 -2 12 5
  18 2 22 -18 22 -14 0 -28 7 -31 16 -3 8 -10 13 -15 10 -5 -4 -12 0 -15 6 -4 7
  -4 2 -2 -12 5 -24 4 -24 -9 -6 -8 10 -12 23 -8 29 3 6 1 7 -5 3 -5 -3 -12 -3
  -15 1 -2 5 -2 3 -1 -4 2 -7 -2 -15 -8 -19 -7 -4 -8 -3 -4 4 4 7 2 12 -4 12 -6
  0 -8 5 -4 13 5 7 0 6 -11 -3 -11 -9 -16 -10 -11 -2 4 6 2 12 -3 12 -6 0 -11
  -5 -11 -12 0 -6 -3 -8 -6 -5 -4 4 -2 12 4 20 8 10 6 13 -9 15 -10 1 -28 3 -38
  4 -15 2 -17 5 -9 15 6 8 8 16 4 20 -3 3 -6 1 -6 -6 0 -7 -12 -10 -32 -7 -47 6
  -78 17 -78 27 0 4 -10 14 -22 20 l-23 12 20 -23 20 -22 -36 21 c-20 12 -43 19
  -52 16 -8 -4 -18 -2 -22 4 -3 6 0 9 8 5 8 -3 18 0 23 7 4 8 3 10 -4 5 -6 -4
  -21 -2 -32 4 -16 8 -18 8 -14 -4 6 -16 -19 -17 -33 -1 -4 4 -2 5 5 1 18 -11
  15 -3 -9 17 -18 16 -20 16 -17 1 2 -9 -3 -18 -10 -20 -7 -1 -8 0 -2 3 16 8 1
  23 -24 23 -12 0 -28 6 -35 13 -11 10 -13 10 -7 0 5 -8 1 -13 -9 -13 -9 0 -14
  4 -11 9 5 8 -16 23 -36 25 -3 1 -10 4 -14 8 -4 4 -13 3 -21 -4 -10 -8 -17 -8
  -26 1 -9 10 -8 11 8 5 18 -7 18 -6 6 9 -7 9 -18 14 -24 10 -6 -3 -7 -1 -3 6 4
  6 11 9 16 6 4 -3 11 2 14 11 3 8 2 13 -3 10 -4 -3 -16 1 -26 8 -17 12 -17 13
  -1 19 12 5 15 3 10 -6 -4 -6 -3 -8 1 -4 11 10 16 39 5 32 -4 -3 -10 2 -13 10
  -4 9 -1 12 9 8 7 -3 14 0 14 6 0 6 -4 11 -10 11 -5 0 -10 7 -10 16 0 9 5 12
  13 8 8 -6 8 -3 -1 9 -8 9 -11 25 -7 38 5 14 4 19 -4 15 -6 -4 -11 -2 -11 3 0
  6 5 11 12 11 6 0 3 10 -8 22 -10 12 -14 19 -9 15 6 -3 17 3 24 15 7 11 8 17 2
  13 -6 -3 -11 -1 -11 5 0 6 -5 8 -12 4 -7 -4 -8 -3 -4 5 4 6 11 9 16 6 4 -3 6
  4 3 15 -3 11 -10 17 -16 13 -6 -4 -7 -1 -1 8 12 20 14 40 3 33 -5 -3 -7 -9 -5
  -13 3 -4 -2 -8 -10 -8 -10 0 -11 4 -4 11 14 14 13 29 -2 20 -7 -5 -8 -3 -4 5
  5 7 15 10 23 6 13 -4 14 -3 3 10 -7 8 -17 12 -23 8 -6 -3 -7 -1 -3 6 4 6 12 9
  17 6 14 -9 11 8 -8 34 -9 14 -11 21 -5 17 8 -5 12 4 12 29 0 21 4 34 10 30 6
  -3 7 1 4 10 -6 14 -8 14 -21 -2 -13 -17 -13 -16 -4 4 17 34 17 113 0 125 -11
  8 -11 9 3 4 10 -3 20 0 24 6 4 6 3 8 -4 4 -13 -8 -26 29 -16 46 5 9 2 8 -9 -1
  -15 -12 -17 -12 -11 4 5 13 4 16 -4 11 -8 -5 -10 -2 -6 8 3 9 10 14 14 11 5
  -3 12 -1 15 5 4 6 1 9 -5 8 -18 -4 -21 32 -4 39 8 3 11 10 8 15 -4 6 -9 5 -14
  -3 -6 -9 -12 -8 -27 6 -16 17 -16 18 0 12 21 -8 22 6 1 27 -11 11 -12 16 -3
  16 7 0 5 6 -6 13 -13 10 -15 16 -6 21 6 4 9 12 6 17 -4 5 -1 9 5 9 7 0 6 5 -2
  14 -7 8 -17 11 -22 8 -5 -3 -6 0 -1 7 5 9 10 10 18 2 6 -6 16 -11 22 -11 5 0
  -2 8 -17 18 -23 15 -25 21 -15 32 7 8 8 10 1 7 -7 -4 -15 0 -18 9 -3 8 -2 13
  3 10 4 -3 8 12 7 34 -1 22 -4 40 -8 40 -5 0 -8 -5 -8 -12 0 -6 -3 -8 -7 -4 -5
  4 1 14 11 22 19 14 19 14 -3 14 -19 0 -21 3 -12 14 9 11 9 16 0 22 -8 5 -10 3
  -4 -7 6 -11 5 -12 -5 -2 -10 10 -11 15 -1 27 9 10 9 16 1 21 -8 5 -7 12 2 23
  12 15 11 16 -4 3 -12 -9 -18 -10 -19 -2 -1 6 -3 16 -4 21 -1 6 -3 19 -4 30 0
  11 -7 19 -13 18 -7 -2 -12 3 -10 11 2 8 -3 18 -10 23 -10 7 -10 9 2 5 8 -2 14
  -12 13 -22 -1 -13 2 -14 10 -5 9 9 7 15 -8 28 -26 22 -54 58 -37 48 8 -5 11
  -1 9 11 -7 35 -19 53 -31 46 -6 -4 -4 2 4 12 8 10 10 16 5 13 -6 -4 -17 -3
  -25 3 -12 7 -11 9 5 9 17 0 17 2 -5 13 -26 13 -33 37 -15 49 6 5 5 8 -3 8 -8
  0 -10 5 -6 13 5 7 0 6 -11 -3 -11 -9 -16 -10 -11 -2 4 6 3 12 -2 12 -6 0 -8
  10 -4 22 4 17 2 20 -13 15 -17 -7 -17 -6 -1 18 11 17 13 24 4 23 -7 -2 -17 7
  -23 20 -5 12 -13 22 -17 22 -5 0 -8 5 -8 11 0 5 6 7 13 3 8 -5 8 -2 -2 9 -15
  18 -26 23 -16 7 3 -5 1 -10 -4 -10 -6 0 -11 6 -11 14 0 25 -27 69 -34 54 -3
  -7 -4 -3 -2 10 4 20 2 21 -12 10 -12 -10 -14 -10 -8 0 4 7 2 12 -5 12 -6 0 -9
  8 -6 20 4 14 0 20 -13 20 -10 0 -24 8 -31 17 -10 11 -10 14 -1 9 6 -4 12 -2
  12 3 0 10 -14 15 -32 12 -4 0 -4 7 -1 16 4 11 3 14 -6 9 -6 -4 -11 -4 -10 1 3
  21 -15 52 -33 56 -13 4 -18 11 -15 20 3 8 1 20 -5 28 -8 11 -9 11 -4 -3 3 -10
  0 -20 -6 -24 -6 -4 -8 -3 -4 4 3 6 -1 18 -11 27 -14 14 -14 18 -2 26 9 6 2 8
  -21 4 -22 -3 -30 -2 -21 4 11 7 11 9 0 14 -12 4 -11 7 1 16 12 8 8 10 -18 7
  -28 -3 -31 -1 -20 12 10 12 10 14 1 8 -7 -4 -13 -2 -13 3 0 6 -7 11 -15 11 -9
  0 -12 6 -8 17 4 9 2 14 -3 10 -6 -3 -16 3 -24 13 -8 10 -17 17 -21 14 -4 -2
  -6 8 -4 23 3 25 2 26 -11 8 -13 -17 -14 -17 -14 -1 0 11 -4 15 -12 10 -8 -5
  -7 0 2 11 14 17 13 18 -4 12 -14 -6 -17 -4 -12 9 5 14 4 15 -9 4 -13 -11 -14
  -10 -10 3 4 8 1 18 -6 23 -7 4 -10 3 -6 -3 8 -13 -24 -12 -39 1 -8 8 -7 14 5
  23 14 12 14 12 -4 6 -11 -3 -26 -11 -34 -17 -9 -6 -7 1 5 19 10 16 14 26 7 22
  -6 -4 -14 -3 -18 3 -3 5 -15 10 -26 10 -10 0 -19 4 -19 9 0 5 8 8 18 6 9 -1
  11 0 5 2 -7 3 -13 10 -13 16 0 7 -4 6 -10 -3 -8 -13 -11 -13 -19 -1 -5 8 -16
  11 -25 8 -9 -4 -15 -3 -15 1 3 20 -3 32 -22 43 -13 7 -19 7 -15 1 3 -6 2 -14
  -4 -17 -6 -4 -9 -1 -8 7 2 7 -3 12 -11 10 -12 -3 -12 0 -1 13 7 8 10 18 6 22
  -3 3 -6 1 -6 -5 0 -7 -5 -12 -11 -12 -5 0 -7 5 -4 10 3 6 -1 10 -9 10 -9 0
  -16 6 -16 13 0 9 -2 9 -9 -1 -7 -11 -9 -10 -15 3 -3 9 -11 13 -17 9 -7 -4 -9
  -3 -6 2 3 6 -3 15 -14 22 -21 14 -26 3 -6 -17 6 -8 0 -6 -14 3 -14 9 -29 13
  -33 9 -4 -5 -7 -3 -6 2 5 21 -1 29 -10 15 -8 -12 -10 -12 -10 5 0 17 -2 17
  -10 5 -8 -13 -10 -12 -10 3 0 15 -3 16 -20 7 -16 -8 -20 -8 -18 2 2 7 7 16 11
  19 5 3 1 9 -8 12 -9 4 -13 3 -10 -2 3 -5 1 -12 -5 -16 -5 -3 -10 -1 -10 6 0 7
  -3 10 -6 6 -9 -9 -44 25 -37 36 3 6 1 7 -5 3 -6 -4 -9 -14 -6 -24 5 -16 5 -16
  -6 1 -6 9 -20 17 -31 17 -14 0 -18 4 -13 13 5 7 0 6 -11 -3 -10 -8 -16 -10
  -12 -4 4 7 0 14 -8 17 -10 4 -12 1 -9 -11 5 -15 4 -15 -6 1 -11 17 -36 25 -25
  8 3 -5 0 -13 -6 -17 -7 -4 -9 -3 -6 2 9 15 -8 35 -31 37 -12 1 -22 5 -22 9 0
  4 -5 8 -11 8 -5 0 -8 -4 -5 -8 3 -5 -1 -9 -9 -9 -8 0 -12 4 -9 9 3 4 -2 11
  -10 14 -9 3 -16 13 -16 21 0 11 5 9 18 -8 15 -17 21 -19 27 -9 5 8 4 11 -3 6
  -6 -3 -16 2 -22 13 -6 12 -16 18 -25 15 -10 -4 -15 0 -16 12 0 18 -1 17 -9 -1
  l-9 -20 -1 20 c-2 11 -2 24 -1 28 1 5 -3 6 -8 3 -5 -4 -13 -2 -16 4 -5 8 -11
  7 -21 -1 -11 -9 -14 -9 -14 1 0 10 -3 10 -15 0 -13 -11 -14 -10 -9 5 5 13 4
  16 -4 11 -8 -4 -12 0 -13 11 0 14 -2 15 -7 3 -4 -8 -16 -16 -27 -17 l-20 -2
  20 16 c19 15 19 15 -4 8 -17 -5 -21 -4 -16 5 6 9 3 9 -14 1 -21 -11 -27 -5
  -22 22 1 5 -3 6 -9 2 -6 -3 -8 -10 -5 -15 3 -4 -3 -7 -12 -5 -10 1 -17 8 -15
  14 1 6 -5 12 -13 12 -8 1 -21 2 -27 3 -7 1 -32 -1 -55 -5 -31 -4 -46 -2 -59
  10 -15 15 -16 14 -9 -9 7 -24 6 -24 -8 -6 -14 19 -14 19 -26 0 -10 -16 -12
  -16 -7 -1 7 21 -2 22 -24 2 -14 -13 -16 -12 -17 8 -2 17 0 19 7 7 5 -8 10 -10
  10 -5 0 6 -5 17 -10 25 -5 8 -10 10 -10 4 0 -17 -34 -23 -56 -11 -26 15 -43
  17 -50 6 -3 -5 -14 -4 -27 3 -20 10 -21 10 -8 -5 17 -21 8 -22 -13 -1 -12 12
  -16 12 -16 2 0 -11 -2 -11 -9 0 -9 15 -89 23 -97 10 -3 -5 -11 -5 -17 0 -15
  10 -27 10 -46 -2 -10 -6 -12 -5 -7 2 10 16 -26 15 -43 0 -11 -11 -12 -10 -6 0
  5 10 2 13 -11 10 -11 -2 -18 -10 -16 -17 1 -7 -2 -10 -8 -6 -6 3 -8 10 -5 15
  3 5 -17 8 -44 7 -38 -2 -47 -5 -39 -15z m-102 -12 c0 -5 -5 -10 -11 -10 -5 0
  -7 5 -4 10 3 6 8 10 11 10 2 0 4 -4 4 -10z m547 -6 c0 -7 -6 -10 -14 -7 -7 3
  -13 8 -13 12 0 4 6 8 13 8 8 0 14 -6 14 -13z m-798 -27 c0 -9 -2 -8 -6 1 -2 6
  -10 9 -15 6 -7 -4 -8 -2 -4 5 9 13 26 5 25 -12z m1326 -67 c3 -5 1 -10 -4 -10
  -6 0 -11 5 -11 10 0 6 2 10 4 10 3 0 8 -4 11 -10z m790 -420 c3 -6 -1 -7 -9
  -4 -18 7 -21 14 -7 14 6 0 13 -4 16 -10z m-2970 -19 c3 -5 2 -12 -3 -15 -5 -3
  -9 1 -9 9 0 17 3 19 12 6z m-154 -134 c-13 -13 -26 -3 -16 12 3 6 11 8 17 5 6
  -4 6 -10 -1 -17z m3652 -432 c-3 -9 -8 -14 -10 -11 -3 3 -2 9 2 15 9 16 15 13
  8 -4z m-4096 -50 c0 -8 -4 -12 -9 -9 -5 3 -6 10 -3 15 9 13 12 11 12 -6z
  m2203 3 c8 -2 25 -9 36 -16 12 -6 36 -14 54 -17 44 -8 92 -29 107 -46 15 -18
  33 -73 69 -204 9 -34 16 -64 20 -90 3 -16 7 -46 10 -65 9 -61 4 -385 -6 -385
  -1 0 -4 -16 -6 -35 -1 -19 -5 -48 -8 -65 -3 -16 -7 -48 -10 -70 -3 -22 -8 -51
  -12 -65 -3 -14 -7 -35 -8 -47 -1 -12 -5 -25 -8 -28 -4 -4 -4 -13 -2 -20 3 -7
  0 -16 -5 -20 -6 -3 -9 -11 -6 -16 4 -5 3 -15 -2 -21 -4 -7 -8 -24 -9 -38 -1
  -14 -2 -25 -4 -25 -1 0 -3 -9 -5 -20 -6 -37 -16 -80 -22 -100 -4 -11 -8 -23
  -9 -27 -1 -5 -2 -9 -4 -10 -1 -2 -3 -12 -5 -23 -4 -21 -12 -57 -15 -65 -1 -3
  -2 -9 -1 -14 1 -4 -4 -14 -10 -22 -6 -8 -9 -14 -5 -14 3 0 1 -12 -5 -27 -6
  -16 -12 -35 -14 -43 -11 -49 -47 -150 -55 -155 -6 -4 -8 -10 -5 -15 3 -5 -8
  -45 -26 -89 -32 -82 -43 -92 -114 -108 -42 -9 -50 -12 -50 -13 0 -3 -41 -10
  -72 -13 -18 -1 -33 -4 -33 -7 0 -6 -19 -8 -140 -13 -41 -2 -79 -1 -85 2 -5 3
  -21 6 -35 7 -56 5 -152 44 -245 100 -68 41 -70 43 -68 81 1 21 4 49 7 63 3 14
  8 39 10 55 7 40 14 70 16 70 1 0 3 7 5 15 8 36 18 86 20 105 2 11 4 21 5 23 2
  1 4 11 5 22 1 11 4 21 5 23 1 1 4 13 5 27 2 14 7 39 10 55 3 17 7 41 9 55 2
  14 4 25 6 25 1 0 4 14 5 30 2 17 7 48 10 70 3 22 8 54 9 70 2 17 5 30 6 30 1
  0 3 23 4 50 1 28 4 55 8 60 6 10 2 71 -7 84 -2 5 -1 21 4 37 9 34 -4 94 -21
  94 -6 0 -9 3 -5 6 7 8 -30 84 -41 84 -4 0 -16 17 -27 37 -11 21 -35 51 -54 68
  -68 60 -133 131 -144 155 -11 27 -17 128 -8 145 3 5 6 23 8 40 2 16 4 36 5 42
  1 7 25 38 55 68 29 31 53 59 53 63 0 11 92 59 130 68 55 12 100 14 317 17 111
  1 204 5 207 7 5 6 173 4 196 -2z m2085 -278 c3 -6 -1 -7 -9 -4 -18 7 -21 14
  -7 14 6 0 13 -4 16 -10z m-3574 -147 c3 1 -4 -6 -16 -17 -20 -19 -20 -19 5
  -12 14 4 20 4 15 -1 -6 -4 -10 -18 -9 -30 1 -16 -4 -20 -18 -18 -14 3 -18 0
  -14 -10 3 -8 1 -15 -4 -15 -6 0 -10 5 -10 11 0 5 -4 8 -9 4 -5 -3 -12 -1 -16
  5 -4 6 -9 8 -13 6 -4 -2 -8 8 -9 22 l-1 27 14 -25 14 -25 -4 27 c-3 15 0 31 6
  34 7 5 8 2 3 -6 -5 -9 -4 -11 3 -6 7 4 12 16 12 27 0 11 5 17 10 14 6 -4 7
  -11 4 -17 -4 -7 -2 -8 4 -4 6 4 9 14 6 24 -5 16 -5 16 9 0 8 -10 16 -17 18
  -15z m3653 -71 c3 -5 -1 -9 -9 -9 -8 0 -12 4 -9 9 3 4 7 8 9 8 2 0 6 -4 9 -8z
  m-5049 -872 c-3 -5 -11 -10 -16 -10 -6 0 -7 5 -4 10 3 6 11 10 16 10 6 0 7 -4
  4 -10z m-25 -70 c-6 -11 -8 -26 -4 -32 4 -7 3 -8 -5 -4 -13 9 -11 37 4 48 16
  12 17 10 5 -12z m-310 -234 c0 -3 -4 -8 -10 -11 -5 -3 -10 -1 -10 4 0 6 5 11
  10 11 6 0 10 -2 10 -4z m-140 -52 c0 -8 -19 -13 -24 -6 -3 5 1 9 9 9 8 0 15
  -2 15 -3z m5715 -13 c3 -5 1 -12 -5 -16 -5 -3 -10 1 -10 9 0 18 6 21 15 7z
  m30 -10 c3 -5 2 -12 -3 -15 -5 -3 -9 1 -9 9 0 17 3 19 12 6z m-5920 -101 c-3
  -5 -12 -10 -18 -10 -7 0 -6 4 3 10 19 12 23 12 15 0z m6370 -58 c-3 -3 -11 0
  -18 7 -9 10 -8 11 6 5 10 -3 15 -9 12 -12z m520 -301 c3 -5 2 -12 -3 -15 -5
  -3 -9 1 -9 9 0 17 3 19 12 6z m-7328 -116 c0 -8 -4 -12 -9 -9 -5 3 -6 10 -3
  15 9 13 12 11 12 -6z m7508 -104 c3 -5 2 -12 -3 -15 -5 -3 -9 1 -9 9 0 17 3
  19 12 6z m104 -184 c8 -10 7 -14 -2 -14 -8 0 -14 6 -14 14 0 7 1 13 2 13 2 0
  8 -6 14 -13z m-7795 -145 c3 -5 -1 -9 -9 -9 -8 0 -12 4 -9 9 3 4 7 8 9 8 2 0
  6 -4 9 -8z m-32 -154 c-2 -10 -6 -18 -7 -18 -1 0 -5 8 -7 18 -3 11 0 19 7 19
  7 0 10 -8 7 -19z m7948 -24 c0 -8 -19 -13 -24 -6 -3 5 1 9 9 9 8 0 15 -2 15
  -3z m-7985 -84 c-3 -5 -11 -10 -16 -10 -6 0 -7 5 -4 10 3 6 11 10 16 10 6 0 7
  -4 4 -10z m-115 -844 c0 -2 -7 -7 -16 -10 -8 -3 -12 -2 -9 4 6 10 25 14 25 6z
  m-233 -968 c2 -17 0 -19 -7 -8 -5 8 -6 18 -4 22 8 12 10 10 11 -14z m8548
  -156 c-3 -3 -11 0 -18 7 -9 10 -8 11 6 5 10 -3 15 -9 12 -12z m-8600 -52 c3
  -5 1 -10 -4 -10 -6 0 -11 5 -11 10 0 6 2 10 4 10 3 0 8 -4 11 -10z m-30 -49
  c3 -5 2 -12 -3 -15 -5 -3 -9 1 -9 9 0 17 3 19 12 6z m8660 -71 c3 -6 -1 -7 -9
  -4 -18 7 -21 14 -7 14 6 0 13 -4 16 -10z m20 -359 c3 -5 2 -12 -3 -15 -5 -3
  -9 1 -9 9 0 17 3 19 12 6z m-8825 -381 c0 -5 -2 -10 -4 -10 -3 0 -8 5 -11 10
  -3 6 -1 10 4 10 6 0 11 -4 11 -10z m-6 -266 c3 -8 2 -12 -4 -9 -6 3 -10 10
  -10 16 0 14 7 11 14 -7z m2 -99 c1 -8 -1 -17 -5 -19 -4 -3 -7 6 -7 19 0 25 8
  25 12 0z m8877 -90 c-3 -9 -8 -14 -10 -11 -3 3 -2 9 2 15 9 16 15 13 8 -4z
  m-8878 -94 c3 -5 2 -12 -3 -15 -5 -3 -9 1 -9 9 0 17 3 19 12 6z m8886 -574
  c-1 -12 -15 -9 -19 4 -3 6 1 10 8 8 6 -3 11 -8 11 -12z m-8661 -411 c0 -3 -4
  -8 -10 -11 -5 -3 -10 -1 -10 4 0 6 5 11 10 11 6 0 10 -2 10 -4z m8604 -61 c-4
  -8 -11 -15 -16 -15 -6 0 -5 6 2 15 7 8 14 15 16 15 2 0 1 -7 -2 -15z m-8106
  -236 c-3 -8 -7 -3 -11 10 -4 17 -3 21 5 13 5 -5 8 -16 6 -23z m172 -45 c0 -8
  -19 -13 -24 -6 -3 5 1 9 9 9 8 0 15 -2 15 -3z m7782 -56 c-14 -14 -44 -20 -36
  -7 3 5 9 7 14 4 5 -3 11 -1 15 5 3 5 9 10 13 10 3 0 1 -5 -6 -12z m-7372 -88
  c0 -5 -2 -10 -4 -10 -3 0 -8 5 -11 10 -3 6 -1 10 4 10 6 0 11 -4 11 -10z
  m7264 -49 c3 -4 -6 -19 -20 -32 -17 -16 -23 -18 -19 -7 4 9 13 19 21 22 9 3
  12 10 9 16 -3 5 -4 10 -1 10 3 0 7 -4 10 -9z m-7055 -17 c4 3 13 0 21 -5 11
  -7 9 -8 -9 -6 -14 2 -26 9 -27 16 -1 6 0 7 3 1 2 -5 8 -8 12 -6z m339 -109
  c-3 -3 -9 2 -12 12 -6 14 -5 15 5 6 7 -7 10 -15 7 -18z m149 -41 c-3 -3 -12
  -4 -19 -1 -8 3 -5 6 6 6 11 1 17 -2 13 -5z m101 -29 c-3 -3 -9 2 -12 12 -6 14
  -5 15 5 6 7 -7 10 -15 7 -18z m5819 -160 c0 -8 -4 -12 -9 -9 -5 3 -6 10 -3 15
  9 13 12 11 12 -6z m-4587 -69 c0 -2 -6 -9 -14 -15 -11 -9 -16 -9 -22 0 -4 7
  -3 9 4 5 6 -3 13 -2 17 4 6 10 15 14 15 6z m4041 -99 c-10 -9 -11 -8 -5 6 3
  10 9 15 12 12 3 -3 0 -11 -7 -18z m-151 -42 c-7 -9 -15 -13 -19 -10 -3 3 1 10
  9 15 21 14 24 12 10 -5z m-3180 1 c0 -3 -4 -8 -10 -11 -5 -3 -10 -1 -10 4 0 6
  5 11 10 11 6 0 10 -2 10 -4z m465 -66 c-3 -5 -1 -10 6 -10 7 0 10 -3 6 -6 -9
  -9 -28 6 -22 17 4 5 8 9 11 9 3 0 2 -4 -1 -10z m506 -113 c-10 -9 -11 -8 -5 6
  3 10 9 15 12 12 3 -3 0 -11 -7 -18z m69 7 c0 -8 -19 -13 -24 -6 -3 5 1 9 9 9
  8 0 15 -2 15 -3z m120 -30 c0 -8 -19 -13 -24 -6 -3 5 1 9 9 9 8 0 15 -2 15 -3z
  m1144 -42 c2 -4 -4 -8 -14 -8 -10 0 -16 4 -14 8 3 4 9 8 14 8 5 0 11 -4 14 -8z
  m-747 -27 c0 -8 -4 -12 -9 -9 -4 3 -8 9 -8 15 0 5 4 9 8 9 5 0 9 -7 9 -15z"
            />
            <path
              d="M4250 8760 c0 -5 5 -10 11 -10 5 0 7 5 4 10 -3 6 -8 10 -11 10 -2 0
  -4 -4 -4 -10z"
            />
            <path
              d="M5155 10400 c-3 -5 -1 -10 4 -10 6 0 11 5 11 10 0 6 -2 10 -4 10 -3
  0 -8 -4 -11 -10z"
            />
            <path d="M5846 10398 c3 -5 10 -6 15 -3 13 9 11 12 -6 12 -8 0 -12 -4 -9 -9z" />
            <path
              d="M4670 10241 c0 -7 -5 -9 -12 -5 -7 5 -8 3 -3 -5 5 -9 10 -10 18 -2 6
  6 8 14 4 18 -4 3 -7 1 -7 -6z"
            />
            <path
              d="M6695 10140 c3 -5 8 -10 11 -10 2 0 4 5 4 10 0 6 -5 10 -11 10 -5 0
  -7 -4 -4 -10z"
            />
            <path d="M4216 9908 c3 -5 10 -6 15 -3 13 9 11 12 -6 12 -8 0 -12 -4 -9 -9z" />
            <path d="M7543 9495 c0 -8 4 -12 9 -9 5 3 6 10 3 15 -9 13 -12 11 -12 -6z" />
            <path d="M3680 9430 c-9 -6 -10 -10 -3 -10 6 0 15 5 18 10 8 12 4 12 -15 0z" />
            <path
              d="M7595 9410 c-3 -5 -1 -10 4 -10 6 0 11 5 11 10 0 6 -2 10 -4 10 -3 0
  -8 -4 -11 -10z"
            />
            <path
              d="M7805 9061 c-6 -11 13 -26 22 -17 4 3 1 6 -6 6 -7 0 -9 5 -6 10 3 6
  4 10 1 10 -3 0 -7 -4 -11 -9z"
            />
            <path
              d="M3316 8921 c-4 -5 -2 -12 3 -15 5 -4 12 -2 15 3 4 5 2 12 -3 15 -5 4
  -12 2 -15 -3z"
            />
            <path d="M7875 8921 c-3 -5 -2 -12 3 -15 5 -3 9 1 9 9 0 17 -3 19 -12 6z" />
            <path d="M7998 8443 c7 -3 16 -2 19 1 4 3 -2 6 -13 5 -11 0 -14 -3 -6 -6z" />
            <path d="M3050 8401 c0 -6 4 -13 10 -16 6 -3 7 1 4 9 -7 18 -14 21 -14 7z" />
            <path d="M2997 8253 c-10 -9 -9 -23 1 -23 5 0 9 7 9 15 0 17 -1 18 -10 8z" />
            <path
              d="M2906 8042 c-3 -5 1 -9 9 -9 8 0 15 4 15 9 0 4 -4 8 -9 8 -6 0 -12
  -4 -15 -8z"
            />
            <path d="M2897 7985 c3 -8 9 -12 14 -9 12 7 11 11 -5 17 -10 4 -13 1 -9 -8z" />
            <path
              d="M2750 7639 c0 -5 5 -7 10 -4 6 3 10 8 10 11 0 2 -4 4 -10 4 -5 0 -10
  -5 -10 -11z"
            />
            <path
              d="M8471 7407 c2 -2 11 -8 20 -15 12 -9 16 -9 16 1 0 7 -9 14 -20 14
  -11 1 -18 1 -16 0z"
            />
            <path d="M9035 7121 c-3 -5 -1 -12 5 -16 5 -3 10 1 10 9 0 18 -6 21 -15 7z" />
            <path d="M9155 7021 c-3 -5 -2 -12 3 -15 5 -3 9 1 9 9 0 17 -3 19 -12 6z" />
            <path d="M9376 6693 c-6 -14 -5 -15 5 -6 7 7 10 15 7 18 -3 3 -9 -2 -12 -12z" />
            <path d="M1638 6623 c7 -3 16 -2 19 1 4 3 -2 6 -13 5 -11 0 -14 -3 -6 -6z" />
            <path
              d="M1565 6380 c3 -5 8 -10 11 -10 2 0 4 5 4 10 0 6 -5 10 -11 10 -5 0
  -7 -4 -4 -10z"
            />
            <path d="M1483 5965 c0 -8 4 -12 9 -9 5 3 6 10 3 15 -9 13 -12 11 -12 -6z" />
            <path d="M9590 5976 c0 -2 7 -9 15 -16 13 -11 14 -10 9 4 -5 14 -24 23 -24 12z" />
            <path
              d="M9653 5295 c0 -8 4 -12 9 -9 4 3 8 9 8 15 0 5 -4 9 -8 9 -5 0 -9 -7
  -9 -15z"
            />
            <path d="M9670 5186 c0 -2 7 -7 16 -10 8 -3 12 -2 9 4 -6 10 -25 14 -25 6z" />
            <path d="M1347 5119 c7 -7 15 -10 18 -7 3 3 -2 9 -12 12 -14 6 -15 5 -6 -5z" />
            <path d="M1314 4909 c-3 -6 -2 -15 3 -20 5 -5 9 -1 9 11 0 23 -2 24 -12 9z" />
            <path
              d="M9700 4696 c0 -2 8 -10 18 -17 15 -13 16 -12 3 4 -13 16 -21 21 -21
  13z"
            />
            <path
              d="M9720 4360 c0 -5 5 -10 10 -10 6 0 10 5 10 10 0 6 -4 10 -10 10 -5 0
  -10 -4 -10 -10z"
            />
            <path
              d="M1000 3785 c-7 -9 -8 -15 -2 -15 5 0 12 7 16 15 3 8 4 15 2 15 -2 0
  -9 -7 -16 -15z"
            />
            <path d="M9830 3470 c-9 -6 -10 -10 -3 -10 6 0 15 5 18 10 8 12 4 12 -15 0z" />
            <path
              d="M920 3406 c0 -2 8 -10 18 -17 15 -13 16 -12 3 4 -13 16 -21 21 -21
  13z"
            />
            <path d="M939 2888 c-5 -18 -6 -38 -1 -34 7 8 12 36 6 36 -2 0 -4 -1 -5 -2z" />
            <path
              d="M9849 2378 c-7 -24 -4 -40 9 -50 15 -11 15 -11 6 2 -6 8 -10 23 -9
  33 3 13 -2 26 -6 15z"
            />
            <path d="M9850 2306 c0 -2 7 -7 16 -10 8 -3 12 -2 9 4 -6 10 -25 14 -25 6z" />
            <path d="M9816 1842 c-2 -4 -1 -14 4 -22 7 -11 9 -9 7 8 -1 24 -3 26 -11 14z" />
            <path
              d="M1250 1700 c0 -5 5 -10 11 -10 5 0 7 5 4 10 -3 6 -8 10 -11 10 -2 0
  -4 -4 -4 -10z"
            />
            <path
              d="M9780 1679 c0 -5 5 -7 10 -4 6 3 10 8 10 11 0 2 -4 4 -10 4 -5 0 -10
  -5 -10 -11z"
            />
            <path d="M1371 1624 c0 -11 3 -14 6 -6 3 7 2 16 -1 19 -3 4 -6 -2 -5 -13z" />
            <path
              d="M1470 1583 c0 -10 40 -36 46 -30 3 2 -7 12 -21 21 -14 9 -25 13 -25
  9z"
            />
            <path
              d="M9705 1550 c-3 -5 1 -10 10 -10 9 0 13 5 10 10 -3 6 -8 10 -10 10 -2
  0 -7 -4 -10 -10z"
            />
            <path d="M1730 1496 c0 -2 7 -7 16 -10 8 -3 12 -2 9 4 -6 10 -25 14 -25 6z" />
            <path
              d="M1790 1459 c0 -5 5 -7 10 -4 6 3 10 8 10 11 0 2 -4 4 -10 4 -5 0 -10
  -5 -10 -11z"
            />
            <path d="M1908 1423 c7 -3 16 -2 19 1 4 3 -2 6 -13 5 -11 0 -14 -3 -6 -6z" />
            <path d="M1981 1394 c0 -11 3 -14 6 -6 3 7 2 16 -1 19 -3 4 -6 -2 -5 -13z" />
            <path
              d="M2190 1340 c0 -5 5 -10 11 -10 5 0 7 5 4 10 -3 6 -8 10 -11 10 -2 0
  -4 -4 -4 -10z"
            />
            <path d="M9590 1321 c0 -6 4 -13 10 -16 6 -3 7 1 4 9 -7 18 -14 21 -14 7z" />
            <path d="M2376 1272 c-3 -4 4 -9 15 -9 23 -2 25 3 4 10 -8 4 -16 3 -19 -1z" />
            <path
              d="M2990 1079 c0 -5 5 -7 10 -4 6 3 10 8 10 11 0 2 -4 4 -10 4 -5 0 -10
  -5 -10 -11z"
            />
            <path d="M3021 1074 c0 -11 3 -14 6 -6 3 7 2 16 -1 19 -3 4 -6 -2 -5 -13z" />
            <path d="M3306 1002 c-3 -4 4 -9 15 -9 23 -2 25 3 4 10 -8 4 -16 3 -19 -1z" />
            <path
              d="M3357 983 c3 -7 6 -13 8 -13 2 0 5 6 8 13 3 8 -1 14 -8 14 -7 0 -11
  -6 -8 -14z"
            />
            <path
              d="M3412 981 c5 -16 35 -24 43 -11 3 5 -3 7 -12 6 -10 -2 -22 2 -26 8
  -6 7 -7 6 -5 -3z"
            />
            <path d="M9120 980 c-12 -7 -10 -9 7 -7 12 0 19 5 17 9 -6 10 -6 10 -24 -2z" />
            <path
              d="M9085 970 c-3 -5 -1 -10 4 -10 6 0 11 5 11 10 0 6 -2 10 -4 10 -3 0
  -8 -4 -11 -10z"
            />
            <path
              d="M3770 896 c0 -2 6 -9 14 -15 11 -9 16 -9 22 0 4 8 3 9 -4 5 -7 -4
  -12 -2 -12 3 0 6 -4 11 -10 11 -5 0 -10 -2 -10 -4z"
            />
            <path d="M8673 811 c0 -11 5 -18 9 -15 4 3 5 11 1 19 -7 21 -12 19 -10 -4z" />
            <path d="M8443 765 c0 -8 4 -12 9 -9 5 3 6 10 3 15 -9 13 -12 11 -12 -6z" />
            <path
              d="M4584 762 c4 -3 14 -7 22 -8 9 -1 13 0 10 4 -4 3 -14 7 -22 8 -9 1
  -13 0 -10 -4z"
            />
            <path
              d="M7935 620 c-3 -5 -1 -10 4 -10 6 0 11 5 11 10 0 6 -2 10 -4 10 -3 0
  -8 -4 -11 -10z"
            />
          </g>
        </svg>